<?xml version="1.0" encoding="UTF-8"?>
<svg xmlns="http://www.w3.org/2000/svg" viewBox="0 0 1400 2194" width="1400" height="2194" role="img" aria-label="あーるさいず ロゴ">
  <title>あーるさいず ロゴ</title>
  <path d="M 586.0 25.0 L 598.0 84.0 L 695.0 179.0 L 699.0 244.0 L 673.0 261.0 L 121.0 261.0 L 62.0 285.0 L 28.0 339.0 L 31.0 2100.0 L 67.0 2148.0 L 120.0 2168.0 L 1306.0 2162.0 L 1351.0 2130.0 L 1374.0 2073.0 L 1368.0 329.0 L 1337.0 285.0 L 1278.0 261.0 L 709.0 261.0 L 693.0 163.0 L 603.0 82.0 Z
    M 715.0 366.0 L 722.0 370.0 L 728.0 376.0 L 728.0 377.0 L 731.0 380.0 L 734.0 386.0 L 735.0 392.0 L 736.0 393.0 L 736.0 405.0 L 735.0 406.0 L 734.0 412.0 L 729.0 421.0 L 721.0 429.0 L 714.0 433.0 L 712.0 433.0 L 708.0 435.0 L 703.0 435.0 L 702.0 436.0 L 697.0 436.0 L 696.0 435.0 L 691.0 435.0 L 690.0 434.0 L 688.0 434.0 L 677.0 428.0 L 668.0 418.0 L 665.0 412.0 L 665.0 410.0 L 664.0 409.0 L 664.0 405.0 L 663.0 404.0 L 663.0 394.0 L 664.0 393.0 L 664.0 389.0 L 666.0 386.0 L 667.0 382.0 L 669.0 380.0 L 671.0 376.0 L 676.0 371.0 L 677.0 371.0 L 682.0 367.0 L 683.0 367.0 L 688.0 372.0 L 689.0 372.0 L 693.0 375.0 L 695.0 375.0 L 696.0 376.0 L 706.0 376.0 L 710.0 374.0 L 710.0 373.0 Z
    M 689.0 365.0 L 692.0 363.0 L 698.0 363.0 L 700.0 362.0 L 701.0 363.0 L 707.0 363.0 L 709.0 365.0 L 709.0 366.0 L 705.0 371.0 L 701.0 372.0 L 700.0 371.0 L 697.0 371.0 L 693.0 369.0 L 691.0 367.0 L 690.0 367.0 Z
    M 691.0 332.0 L 714.0 333.0 L 726.0 337.0 L 741.0 346.0 L 757.0 364.0 L 763.0 376.0 L 767.0 393.0 L 765.0 416.0 L 761.0 427.0 L 753.0 440.0 L 734.0 457.0 L 724.0 462.0 L 709.0 466.0 L 685.0 465.0 L 675.0 462.0 L 662.0 455.0 L 646.0 440.0 L 636.0 422.0 L 633.0 411.0 L 633.0 387.0 L 642.0 364.0 L 657.0 347.0 L 667.0 340.0 L 677.0 336.0 L 677.0 354.0 L 680.0 362.0 L 666.0 374.0 L 660.0 385.0 L 658.0 394.0 L 659.0 409.0 L 664.0 421.0 L 675.0 433.0 L 691.0 440.0 L 708.0 440.0 L 715.0 438.0 L 724.0 433.0 L 734.0 423.0 L 741.0 405.0 L 741.0 393.0 L 739.0 385.0 L 733.0 374.0 L 724.0 365.0 L 717.0 361.0 L 708.0 358.0 L 684.0 359.0 L 682.0 353.0 L 683.0 335.0 Z
    M 72.0 284.0 L 119.0 266.0 L 673.0 266.0 L 681.0 325.0 L 639.0 359.0 L 628.0 411.0 L 651.0 453.0 L 690.0 471.0 L 747.0 454.0 L 772.0 396.0 L 743.0 341.0 L 685.0 327.0 L 681.0 266.0 L 1280.0 266.0 L 1354.0 312.0 L 1369.0 354.0 L 1369.0 2075.0 L 1326.0 2146.0 L 1281.0 2163.0 L 119.0 2163.0 L 50.0 2124.0 L 30.0 2074.0 L 30.0 355.0 Z
    M 1031.0 2023.0 L 1031.0 2025.0 L 1034.0 2025.0 L 1037.0 2029.0 L 1037.0 2061.0 L 1036.0 2063.0 L 1034.0 2065.0 L 1032.0 2065.0 L 1031.0 2067.0 L 1051.0 2067.0 L 1050.0 2065.0 L 1047.0 2065.0 L 1045.0 2063.0 L 1045.0 2028.0 L 1048.0 2025.0 L 1050.0 2025.0 L 1051.0 2024.0 L 1050.0 2023.0 Z
    M 972.0 2023.0 L 972.0 2025.0 L 975.0 2025.0 L 978.0 2028.0 L 978.0 2063.0 L 976.0 2065.0 L 973.0 2065.0 L 972.0 2066.0 L 973.0 2067.0 L 992.0 2067.0 L 991.0 2065.0 L 988.0 2065.0 L 986.0 2062.0 L 986.0 2047.0 L 988.0 2045.0 L 1008.0 2045.0 L 1010.0 2047.0 L 1010.0 2062.0 L 1008.0 2065.0 L 1005.0 2065.0 L 1004.0 2066.0 L 1005.0 2067.0 L 1024.0 2067.0 L 1024.0 2065.0 L 1021.0 2065.0 L 1018.0 2062.0 L 1018.0 2029.0 L 1021.0 2025.0 L 1024.0 2025.0 L 1024.0 2023.0 L 1004.0 2023.0 L 1004.0 2025.0 L 1008.0 2025.0 L 1010.0 2027.0 L 1010.0 2041.0 L 1008.0 2043.0 L 988.0 2043.0 L 986.0 2041.0 L 986.0 2028.0 L 989.0 2025.0 L 992.0 2025.0 L 992.0 2023.0 Z
    M 829.0 2023.0 L 830.0 2025.0 L 832.0 2025.0 L 837.0 2030.0 L 837.0 2031.0 L 839.0 2033.0 L 839.0 2034.0 L 841.0 2036.0 L 841.0 2037.0 L 848.0 2047.0 L 848.0 2063.0 L 846.0 2065.0 L 843.0 2065.0 L 842.0 2066.0 L 843.0 2067.0 L 862.0 2067.0 L 863.0 2066.0 L 862.0 2065.0 L 859.0 2065.0 L 856.0 2062.0 L 856.0 2047.0 L 858.0 2043.0 L 866.0 2032.0 L 866.0 2031.0 L 871.0 2026.0 L 875.0 2025.0 L 875.0 2023.0 L 859.0 2023.0 L 859.0 2025.0 L 861.0 2025.0 L 864.0 2028.0 L 861.0 2034.0 L 859.0 2036.0 L 858.0 2039.0 L 855.0 2042.0 L 854.0 2042.0 L 852.0 2040.0 L 849.0 2034.0 L 845.0 2029.0 L 845.0 2026.0 L 846.0 2025.0 L 848.0 2025.0 L 849.0 2024.0 L 848.0 2023.0 Z
    M 807.0 2023.0 L 806.0 2024.0 L 807.0 2025.0 L 810.0 2025.0 L 812.0 2027.0 L 812.0 2029.0 L 813.0 2030.0 L 813.0 2060.0 L 812.0 2061.0 L 812.0 2063.0 L 810.0 2065.0 L 808.0 2065.0 L 807.0 2067.0 L 827.0 2067.0 L 826.0 2065.0 L 823.0 2065.0 L 821.0 2063.0 L 821.0 2027.0 L 823.0 2025.0 L 826.0 2025.0 L 827.0 2024.0 L 826.0 2023.0 Z
    M 748.0 2023.0 L 748.0 2025.0 L 751.0 2025.0 L 754.0 2028.0 L 754.0 2062.0 L 752.0 2065.0 L 749.0 2065.0 L 748.0 2067.0 L 768.0 2067.0 L 767.0 2065.0 L 764.0 2065.0 L 762.0 2063.0 L 762.0 2047.0 L 764.0 2045.0 L 784.0 2045.0 L 786.0 2047.0 L 786.0 2062.0 L 784.0 2065.0 L 781.0 2065.0 L 780.0 2067.0 L 800.0 2067.0 L 799.0 2065.0 L 796.0 2065.0 L 794.0 2062.0 L 794.0 2028.0 L 797.0 2025.0 L 800.0 2025.0 L 800.0 2023.0 L 780.0 2023.0 L 780.0 2025.0 L 783.0 2025.0 L 786.0 2028.0 L 786.0 2041.0 L 784.0 2043.0 L 764.0 2043.0 L 762.0 2041.0 L 762.0 2028.0 L 765.0 2025.0 L 767.0 2025.0 L 768.0 2023.0 Z
    M 608.0 2023.0 L 608.0 2025.0 L 613.0 2026.0 L 615.0 2030.0 L 615.0 2034.0 L 614.0 2035.0 L 614.0 2059.0 L 613.0 2060.0 L 613.0 2062.0 L 610.0 2065.0 L 608.0 2065.0 L 607.0 2066.0 L 608.0 2067.0 L 624.0 2067.0 L 623.0 2065.0 L 619.0 2064.0 L 617.0 2060.0 L 617.0 2033.0 L 618.0 2032.0 L 620.0 2033.0 L 620.0 2035.0 L 636.0 2067.0 L 639.0 2065.0 L 644.0 2055.0 L 644.0 2053.0 L 649.0 2044.0 L 649.0 2042.0 L 653.0 2034.0 L 655.0 2033.0 L 656.0 2034.0 L 656.0 2062.0 L 653.0 2065.0 L 651.0 2065.0 L 650.0 2067.0 L 670.0 2067.0 L 670.0 2065.0 L 667.0 2065.0 L 664.0 2061.0 L 664.0 2028.0 L 667.0 2025.0 L 669.0 2025.0 L 670.0 2023.0 L 655.0 2023.0 L 653.0 2025.0 L 651.0 2032.0 L 640.0 2055.0 L 638.0 2054.0 L 634.0 2046.0 L 634.0 2044.0 L 626.0 2029.0 L 625.0 2025.0 L 623.0 2023.0 Z
    M 500.0 2024.0 L 501.0 2025.0 L 504.0 2025.0 L 507.0 2029.0 L 507.0 2061.0 L 506.0 2063.0 L 504.0 2065.0 L 502.0 2065.0 L 501.0 2067.0 L 521.0 2067.0 L 520.0 2065.0 L 517.0 2065.0 L 515.0 2063.0 L 515.0 2046.0 L 516.0 2045.0 L 537.0 2045.0 L 539.0 2047.0 L 539.0 2058.0 L 538.0 2059.0 L 538.0 2063.0 L 536.0 2065.0 L 534.0 2065.0 L 533.0 2067.0 L 553.0 2067.0 L 552.0 2065.0 L 549.0 2065.0 L 547.0 2063.0 L 547.0 2027.0 L 549.0 2025.0 L 552.0 2025.0 L 553.0 2024.0 L 552.0 2023.0 L 533.0 2023.0 L 532.0 2024.0 L 533.0 2025.0 L 536.0 2025.0 L 538.0 2027.0 L 538.0 2029.0 L 539.0 2030.0 L 539.0 2041.0 L 537.0 2043.0 L 517.0 2043.0 L 515.0 2041.0 L 515.0 2027.0 L 517.0 2025.0 L 520.0 2025.0 L 521.0 2024.0 L 520.0 2023.0 L 501.0 2023.0 Z
    M 394.0 2024.0 L 395.0 2025.0 L 398.0 2025.0 L 400.0 2027.0 L 400.0 2030.0 L 401.0 2031.0 L 401.0 2057.0 L 400.0 2058.0 L 400.0 2063.0 L 398.0 2065.0 L 396.0 2065.0 L 395.0 2067.0 L 414.0 2067.0 L 415.0 2066.0 L 414.0 2065.0 L 411.0 2065.0 L 409.0 2063.0 L 409.0 2061.0 L 408.0 2060.0 L 408.0 2048.0 L 410.0 2046.0 L 428.0 2067.0 L 442.0 2067.0 L 441.0 2065.0 L 437.0 2064.0 L 416.0 2042.0 L 416.0 2040.0 L 418.0 2039.0 L 425.0 2032.0 L 426.0 2032.0 L 432.0 2027.0 L 436.0 2025.0 L 438.0 2025.0 L 439.0 2024.0 L 438.0 2023.0 L 423.0 2023.0 L 422.0 2025.0 L 424.0 2025.0 L 425.0 2026.0 L 425.0 2028.0 L 410.0 2042.0 L 408.0 2040.0 L 408.0 2032.0 L 409.0 2031.0 L 409.0 2027.0 L 411.0 2025.0 L 414.0 2025.0 L 414.0 2023.0 L 395.0 2023.0 Z
    M 292.0 2023.0 L 291.0 2024.0 L 292.0 2025.0 L 294.0 2025.0 L 299.0 2030.0 L 299.0 2031.0 L 301.0 2033.0 L 301.0 2034.0 L 303.0 2036.0 L 303.0 2037.0 L 310.0 2047.0 L 310.0 2063.0 L 308.0 2065.0 L 306.0 2065.0 L 305.0 2067.0 L 325.0 2067.0 L 324.0 2065.0 L 321.0 2065.0 L 319.0 2063.0 L 319.0 2061.0 L 318.0 2060.0 L 318.0 2048.0 L 319.0 2047.0 L 319.0 2045.0 L 321.0 2043.0 L 321.0 2042.0 L 323.0 2040.0 L 323.0 2039.0 L 325.0 2037.0 L 329.0 2030.0 L 332.0 2027.0 L 338.0 2024.0 L 337.0 2023.0 L 321.0 2023.0 L 321.0 2024.0 L 325.0 2026.0 L 326.0 2028.0 L 320.0 2039.0 L 317.0 2042.0 L 316.0 2042.0 L 307.0 2028.0 L 307.0 2026.0 L 308.0 2025.0 L 311.0 2025.0 L 311.0 2023.0 Z
    M 945.0 2022.0 L 944.0 2023.0 L 941.0 2023.0 L 939.0 2024.0 L 934.0 2029.0 L 934.0 2038.0 L 936.0 2040.0 L 936.0 2041.0 L 940.0 2044.0 L 953.0 2050.0 L 957.0 2054.0 L 958.0 2056.0 L 958.0 2059.0 L 957.0 2061.0 L 953.0 2065.0 L 951.0 2066.0 L 946.0 2066.0 L 945.0 2065.0 L 943.0 2065.0 L 936.0 2059.0 L 934.0 2055.0 L 932.0 2055.0 L 932.0 2059.0 L 933.0 2060.0 L 934.0 2066.0 L 936.0 2066.0 L 937.0 2067.0 L 941.0 2067.0 L 942.0 2068.0 L 952.0 2068.0 L 953.0 2067.0 L 959.0 2066.0 L 963.0 2063.0 L 965.0 2059.0 L 965.0 2050.0 L 964.0 2048.0 L 958.0 2043.0 L 946.0 2038.0 L 941.0 2033.0 L 941.0 2030.0 L 945.0 2025.0 L 947.0 2024.0 L 951.0 2024.0 L 952.0 2025.0 L 954.0 2025.0 L 960.0 2031.0 L 960.0 2032.0 L 962.0 2034.0 L 963.0 2034.0 L 963.0 2024.0 L 962.0 2023.0 Z
    M 883.0 2026.0 L 879.0 2030.0 L 878.0 2030.0 L 873.0 2039.0 L 873.0 2051.0 L 875.0 2054.0 L 875.0 2056.0 L 880.0 2062.0 L 889.0 2067.0 L 893.0 2067.0 L 894.0 2068.0 L 905.0 2068.0 L 906.0 2067.0 L 909.0 2067.0 L 917.0 2063.0 L 922.0 2058.0 L 925.0 2052.0 L 925.0 2038.0 L 922.0 2032.0 L 917.0 2027.0 L 909.0 2023.0 L 905.0 2023.0 L 904.0 2022.0 L 895.0 2022.0 L 894.0 2023.0 L 890.0 2023.0 L 889.0 2024.0 L 887.0 2024.0 Z
    M 897.0 2024.0 L 901.0 2024.0 L 902.0 2025.0 L 905.0 2025.0 L 907.0 2026.0 L 913.0 2032.0 L 915.0 2036.0 L 915.0 2039.0 L 916.0 2040.0 L 916.0 2050.0 L 915.0 2051.0 L 915.0 2054.0 L 913.0 2058.0 L 907.0 2064.0 L 903.0 2065.0 L 902.0 2066.0 L 897.0 2066.0 L 896.0 2065.0 L 893.0 2065.0 L 891.0 2063.0 L 890.0 2063.0 L 886.0 2059.0 L 883.0 2053.0 L 883.0 2049.0 L 882.0 2048.0 L 882.0 2042.0 L 883.0 2041.0 L 883.0 2037.0 L 886.0 2031.0 L 890.0 2027.0 L 894.0 2025.0 L 896.0 2025.0 Z
    M 700.0 2022.0 L 694.0 2025.0 L 693.0 2029.0 L 692.0 2030.0 L 692.0 2032.0 L 689.0 2037.0 L 689.0 2039.0 L 687.0 2042.0 L 687.0 2044.0 L 682.0 2054.0 L 682.0 2056.0 L 680.0 2060.0 L 675.0 2065.0 L 673.0 2065.0 L 673.0 2067.0 L 689.0 2067.0 L 689.0 2065.0 L 686.0 2065.0 L 683.0 2061.0 L 684.0 2060.0 L 684.0 2058.0 L 685.0 2057.0 L 686.0 2053.0 L 689.0 2050.0 L 702.0 2050.0 L 704.0 2052.0 L 705.0 2056.0 L 707.0 2059.0 L 707.0 2064.0 L 706.0 2065.0 L 703.0 2065.0 L 702.0 2066.0 L 703.0 2067.0 L 722.0 2067.0 L 723.0 2066.0 L 722.0 2065.0 L 719.0 2065.0 L 717.0 2063.0 L 713.0 2055.0 L 712.0 2050.0 L 710.0 2047.0 L 710.0 2045.0 L 708.0 2042.0 L 708.0 2040.0 L 706.0 2037.0 L 706.0 2035.0 L 704.0 2032.0 L 703.0 2027.0 Z
    M 695.0 2032.0 L 697.0 2034.0 L 698.0 2038.0 L 699.0 2039.0 L 699.0 2041.0 L 701.0 2044.0 L 701.0 2047.0 L 700.0 2048.0 L 690.0 2048.0 L 689.0 2047.0 L 689.0 2045.0 L 691.0 2042.0 L 691.0 2040.0 Z
    M 584.0 2023.0 L 582.0 2022.0 L 577.0 2025.0 L 575.0 2029.0 L 575.0 2031.0 L 573.0 2034.0 L 573.0 2036.0 L 571.0 2039.0 L 571.0 2041.0 L 565.0 2053.0 L 565.0 2055.0 L 562.0 2061.0 L 558.0 2065.0 L 556.0 2065.0 L 556.0 2067.0 L 572.0 2067.0 L 571.0 2065.0 L 569.0 2065.0 L 566.0 2062.0 L 566.0 2060.0 L 569.0 2054.0 L 569.0 2052.0 L 571.0 2050.0 L 584.0 2050.0 L 587.0 2053.0 L 589.0 2057.0 L 589.0 2059.0 L 590.0 2060.0 L 590.0 2063.0 L 588.0 2065.0 L 586.0 2065.0 L 585.0 2067.0 L 605.0 2067.0 L 604.0 2065.0 L 602.0 2065.0 L 599.0 2062.0 L 597.0 2058.0 L 597.0 2056.0 L 595.0 2053.0 L 595.0 2051.0 L 591.0 2043.0 L 590.0 2038.0 L 588.0 2035.0 L 588.0 2033.0 L 586.0 2030.0 L 586.0 2028.0 L 584.0 2025.0 Z
    M 578.0 2032.0 L 580.0 2034.0 L 581.0 2039.0 L 584.0 2045.0 L 584.0 2047.0 L 583.0 2048.0 L 573.0 2048.0 L 572.0 2047.0 L 573.0 2042.0 Z
    M 450.0 2027.0 L 445.0 2032.0 L 442.0 2038.0 L 442.0 2042.0 L 441.0 2043.0 L 441.0 2048.0 L 442.0 2049.0 L 443.0 2055.0 L 450.0 2063.0 L 451.0 2063.0 L 455.0 2066.0 L 461.0 2067.0 L 462.0 2068.0 L 473.0 2068.0 L 474.0 2067.0 L 480.0 2066.0 L 484.0 2064.0 L 488.0 2060.0 L 489.0 2060.0 L 494.0 2050.0 L 494.0 2040.0 L 493.0 2039.0 L 493.0 2037.0 L 491.0 2033.0 L 484.0 2026.0 L 480.0 2024.0 L 478.0 2024.0 L 477.0 2023.0 L 473.0 2023.0 L 472.0 2022.0 L 463.0 2022.0 L 462.0 2023.0 L 458.0 2023.0 Z
    M 466.0 2024.0 L 470.0 2024.0 L 471.0 2025.0 L 473.0 2025.0 L 477.0 2027.0 L 480.0 2030.0 L 480.0 2031.0 L 483.0 2035.0 L 483.0 2037.0 L 484.0 2038.0 L 484.0 2043.0 L 485.0 2044.0 L 484.0 2052.0 L 483.0 2053.0 L 483.0 2055.0 L 481.0 2059.0 L 477.0 2063.0 L 473.0 2065.0 L 471.0 2065.0 L 470.0 2066.0 L 465.0 2066.0 L 464.0 2065.0 L 460.0 2064.0 L 454.0 2058.0 L 452.0 2054.0 L 452.0 2052.0 L 451.0 2051.0 L 451.0 2039.0 L 452.0 2038.0 L 452.0 2036.0 L 454.0 2032.0 L 460.0 2026.0 L 462.0 2025.0 L 465.0 2025.0 Z
    M 345.0 2026.0 L 338.0 2033.0 L 336.0 2037.0 L 336.0 2039.0 L 335.0 2040.0 L 335.0 2050.0 L 336.0 2051.0 L 336.0 2053.0 L 338.0 2057.0 L 341.0 2060.0 L 341.0 2061.0 L 342.0 2061.0 L 345.0 2064.0 L 351.0 2067.0 L 355.0 2067.0 L 356.0 2068.0 L 367.0 2068.0 L 368.0 2067.0 L 371.0 2067.0 L 372.0 2066.0 L 376.0 2065.0 L 384.0 2058.0 L 387.0 2052.0 L 387.0 2049.0 L 388.0 2048.0 L 388.0 2042.0 L 387.0 2041.0 L 386.0 2035.0 L 379.0 2027.0 L 378.0 2027.0 L 374.0 2024.0 L 372.0 2024.0 L 371.0 2023.0 L 367.0 2023.0 L 366.0 2022.0 L 357.0 2022.0 L 356.0 2023.0 L 352.0 2023.0 L 351.0 2024.0 L 349.0 2024.0 Z
    M 359.0 2024.0 L 363.0 2024.0 L 364.0 2025.0 L 367.0 2025.0 L 369.0 2026.0 L 375.0 2032.0 L 377.0 2036.0 L 377.0 2038.0 L 378.0 2039.0 L 378.0 2051.0 L 377.0 2052.0 L 377.0 2054.0 L 375.0 2058.0 L 369.0 2064.0 L 365.0 2065.0 L 364.0 2066.0 L 359.0 2066.0 L 358.0 2065.0 L 356.0 2065.0 L 352.0 2063.0 L 349.0 2060.0 L 349.0 2059.0 L 346.0 2055.0 L 346.0 2053.0 L 345.0 2052.0 L 345.0 2046.0 L 344.0 2045.0 L 345.0 2044.0 L 345.0 2038.0 L 349.0 2030.0 L 354.0 2026.0 L 358.0 2025.0 Z
    M 390.0 1860.0 L 390.0 1867.0 L 392.0 1871.0 L 394.0 1873.0 L 394.0 1874.0 L 401.0 1881.0 L 403.0 1882.0 L 408.0 1882.0 L 414.0 1879.0 L 420.0 1879.0 L 421.0 1878.0 L 431.0 1878.0 L 432.0 1877.0 L 446.0 1877.0 L 447.0 1876.0 L 509.0 1876.0 L 512.0 1873.0 L 512.0 1868.0 L 508.0 1864.0 L 502.0 1861.0 L 500.0 1861.0 L 499.0 1860.0 L 492.0 1860.0 L 486.0 1863.0 L 473.0 1863.0 L 472.0 1864.0 L 448.0 1864.0 L 447.0 1865.0 L 429.0 1865.0 L 428.0 1866.0 L 412.0 1866.0 L 411.0 1867.0 L 405.0 1867.0 L 404.0 1866.0 L 401.0 1866.0 L 396.0 1862.0 L 395.0 1862.0 L 392.0 1859.0 Z
    M 941.0 1844.0 L 941.0 1845.0 L 944.0 1848.0 L 948.0 1850.0 L 957.0 1859.0 L 965.0 1873.0 L 966.0 1879.0 L 967.0 1880.0 L 967.0 1883.0 L 964.0 1886.0 L 960.0 1888.0 L 954.0 1889.0 L 952.0 1890.0 L 951.0 1892.0 L 952.0 1893.0 L 956.0 1893.0 L 957.0 1894.0 L 960.0 1894.0 L 961.0 1895.0 L 965.0 1896.0 L 971.0 1903.0 L 973.0 1903.0 L 974.0 1904.0 L 978.0 1903.0 L 981.0 1900.0 L 982.0 1896.0 L 983.0 1895.0 L 983.0 1884.0 L 982.0 1883.0 L 982.0 1879.0 L 981.0 1878.0 L 981.0 1876.0 L 976.0 1866.0 L 970.0 1859.0 L 970.0 1858.0 L 959.0 1849.0 L 948.0 1844.0 Z
    M 858.0 1824.0 L 857.0 1826.0 L 862.0 1832.0 L 864.0 1836.0 L 864.0 1841.0 L 865.0 1842.0 L 865.0 1852.0 L 864.0 1853.0 L 864.0 1866.0 L 865.0 1867.0 L 865.0 1879.0 L 866.0 1880.0 L 866.0 1886.0 L 867.0 1887.0 L 867.0 1890.0 L 868.0 1891.0 L 869.0 1897.0 L 875.0 1908.0 L 882.0 1916.0 L 883.0 1916.0 L 889.0 1921.0 L 891.0 1921.0 L 892.0 1922.0 L 895.0 1922.0 L 896.0 1923.0 L 901.0 1922.0 L 903.0 1920.0 L 904.0 1915.0 L 900.0 1907.0 L 900.0 1904.0 L 901.0 1903.0 L 901.0 1900.0 L 903.0 1896.0 L 903.0 1893.0 L 905.0 1890.0 L 906.0 1885.0 L 908.0 1882.0 L 908.0 1880.0 L 910.0 1877.0 L 910.0 1875.0 L 913.0 1869.0 L 912.0 1868.0 L 910.0 1868.0 L 907.0 1871.0 L 906.0 1874.0 L 896.0 1888.0 L 895.0 1891.0 L 893.0 1893.0 L 891.0 1897.0 L 888.0 1900.0 L 885.0 1900.0 L 881.0 1896.0 L 880.0 1894.0 L 880.0 1892.0 L 878.0 1888.0 L 878.0 1885.0 L 877.0 1884.0 L 877.0 1877.0 L 876.0 1876.0 L 876.0 1865.0 L 877.0 1864.0 L 877.0 1856.0 L 878.0 1855.0 L 878.0 1851.0 L 880.0 1848.0 L 880.0 1839.0 L 877.0 1835.0 L 877.0 1834.0 L 868.0 1826.0 L 864.0 1824.0 Z
    M 623.0 1809.0 L 618.0 1809.0 L 611.0 1814.0 L 587.0 1821.0 L 580.0 1821.0 L 572.0 1814.0 L 569.0 1818.0 L 572.0 1828.0 L 580.0 1835.0 L 585.0 1835.0 L 613.0 1821.0 L 615.0 1822.0 L 615.0 1824.0 L 589.0 1857.0 L 559.0 1889.0 L 557.0 1898.0 L 560.0 1902.0 L 568.0 1902.0 L 587.0 1880.0 L 595.0 1874.0 L 608.0 1869.0 L 622.0 1869.0 L 631.0 1873.0 L 637.0 1880.0 L 640.0 1887.0 L 639.0 1905.0 L 635.0 1912.0 L 626.0 1919.0 L 623.0 1918.0 L 620.0 1911.0 L 612.0 1903.0 L 606.0 1900.0 L 590.0 1900.0 L 581.0 1907.0 L 580.0 1919.0 L 582.0 1923.0 L 588.0 1929.0 L 596.0 1932.0 L 615.0 1933.0 L 634.0 1928.0 L 642.0 1923.0 L 650.0 1915.0 L 655.0 1904.0 L 655.0 1884.0 L 651.0 1876.0 L 641.0 1867.0 L 628.0 1862.0 L 609.0 1862.0 L 594.0 1869.0 L 592.0 1868.0 L 613.0 1844.0 L 629.0 1828.0 L 636.0 1824.0 L 637.0 1820.0 L 635.0 1816.0 Z
    M 586.0 1910.0 L 590.0 1906.0 L 592.0 1905.0 L 597.0 1905.0 L 601.0 1907.0 L 608.0 1914.0 L 611.0 1920.0 L 611.0 1922.0 L 610.0 1923.0 L 596.0 1923.0 L 595.0 1922.0 L 593.0 1922.0 L 591.0 1921.0 L 587.0 1917.0 L 586.0 1915.0 Z
    M 751.0 1805.0 L 744.0 1810.0 L 744.0 1813.0 L 752.0 1814.0 L 755.0 1817.0 L 763.0 1839.0 L 761.0 1841.0 L 732.0 1845.0 L 722.0 1843.0 L 714.0 1838.0 L 711.0 1839.0 L 718.0 1848.0 L 730.0 1854.0 L 751.0 1854.0 L 767.0 1851.0 L 779.0 1877.0 L 752.0 1876.0 L 734.0 1881.0 L 727.0 1886.0 L 722.0 1893.0 L 721.0 1909.0 L 726.0 1918.0 L 740.0 1928.0 L 759.0 1933.0 L 787.0 1933.0 L 792.0 1929.0 L 792.0 1924.0 L 787.0 1919.0 L 781.0 1917.0 L 753.0 1917.0 L 741.0 1914.0 L 732.0 1907.0 L 730.0 1903.0 L 730.0 1896.0 L 737.0 1887.0 L 743.0 1884.0 L 764.0 1883.0 L 781.0 1889.0 L 793.0 1899.0 L 799.0 1899.0 L 802.0 1895.0 L 801.0 1884.0 L 789.0 1871.0 L 777.0 1849.0 L 781.0 1846.0 L 807.0 1837.0 L 809.0 1835.0 L 809.0 1829.0 L 804.0 1826.0 L 797.0 1826.0 L 774.0 1837.0 L 770.0 1828.0 L 770.0 1812.0 L 764.0 1807.0 Z
    M 269.0 1805.0 L 267.0 1809.0 L 273.0 1811.0 L 277.0 1816.0 L 276.0 1830.0 L 274.0 1832.0 L 253.0 1833.0 L 242.0 1828.0 L 244.0 1835.0 L 253.0 1842.0 L 272.0 1842.0 L 274.0 1844.0 L 272.0 1863.0 L 256.0 1873.0 L 241.0 1888.0 L 234.0 1903.0 L 235.0 1917.0 L 242.0 1923.0 L 250.0 1923.0 L 265.0 1917.0 L 275.0 1910.0 L 284.0 1916.0 L 289.0 1916.0 L 292.0 1910.0 L 287.0 1900.0 L 303.0 1884.0 L 320.0 1861.0 L 331.0 1866.0 L 338.0 1875.0 L 340.0 1882.0 L 338.0 1899.0 L 330.0 1911.0 L 318.0 1920.0 L 303.0 1927.0 L 286.0 1931.0 L 284.0 1934.0 L 302.0 1934.0 L 334.0 1924.0 L 348.0 1913.0 L 354.0 1903.0 L 356.0 1887.0 L 351.0 1873.0 L 338.0 1861.0 L 321.0 1856.0 L 314.0 1847.0 L 308.0 1845.0 L 303.0 1846.0 L 307.0 1852.0 L 306.0 1855.0 L 286.0 1859.0 L 282.0 1858.0 L 283.0 1847.0 L 286.0 1840.0 L 319.0 1831.0 L 326.0 1826.0 L 326.0 1822.0 L 323.0 1819.0 L 312.0 1819.0 L 289.0 1829.0 L 288.0 1825.0 L 294.0 1817.0 L 293.0 1811.0 L 280.0 1804.0 Z
    M 270.0 1873.0 L 271.0 1874.0 L 271.0 1886.0 L 272.0 1887.0 L 272.0 1894.0 L 273.0 1895.0 L 273.0 1900.0 L 265.0 1906.0 L 257.0 1910.0 L 255.0 1910.0 L 254.0 1911.0 L 249.0 1911.0 L 246.0 1908.0 L 246.0 1901.0 L 247.0 1900.0 L 247.0 1898.0 L 248.0 1897.0 L 249.0 1893.0 L 254.0 1887.0 L 254.0 1886.0 L 262.0 1878.0 L 263.0 1878.0 L 266.0 1875.0 Z
    M 304.0 1861.0 L 305.0 1863.0 L 302.0 1867.0 L 301.0 1870.0 L 297.0 1875.0 L 297.0 1876.0 L 290.0 1884.0 L 290.0 1885.0 L 285.0 1890.0 L 284.0 1890.0 L 283.0 1889.0 L 283.0 1886.0 L 282.0 1885.0 L 282.0 1867.0 L 285.0 1865.0 L 287.0 1865.0 L 288.0 1864.0 L 290.0 1864.0 L 294.0 1862.0 Z
    M 1104.0 1803.0 L 1103.0 1804.0 L 1103.0 1806.0 L 1111.0 1815.0 L 1114.0 1821.0 L 1118.0 1824.0 L 1121.0 1824.0 L 1123.0 1823.0 L 1124.0 1821.0 L 1124.0 1815.0 L 1123.0 1813.0 L 1118.0 1808.0 L 1112.0 1805.0 Z
    M 1144.0 1835.0 L 1138.0 1831.0 L 1131.0 1829.0 L 1124.0 1829.0 L 1110.0 1833.0 L 1090.0 1834.0 L 1089.0 1823.0 L 1093.0 1817.0 L 1093.0 1812.0 L 1084.0 1805.0 L 1073.0 1803.0 L 1068.0 1805.0 L 1064.0 1809.0 L 1064.0 1811.0 L 1073.0 1812.0 L 1076.0 1815.0 L 1077.0 1834.0 L 1075.0 1836.0 L 1029.0 1843.0 L 1021.0 1843.0 L 1014.0 1840.0 L 1011.0 1837.0 L 1008.0 1837.0 L 1008.0 1845.0 L 1015.0 1853.0 L 1023.0 1857.0 L 1029.0 1856.0 L 1035.0 1852.0 L 1046.0 1849.0 L 1074.0 1844.0 L 1077.0 1846.0 L 1077.0 1859.0 L 1075.0 1861.0 L 1067.0 1860.0 L 1057.0 1864.0 L 1052.0 1869.0 L 1049.0 1879.0 L 1050.0 1887.0 L 1054.0 1894.0 L 1062.0 1899.0 L 1076.0 1900.0 L 1069.0 1912.0 L 1060.0 1921.0 L 1053.0 1926.0 L 1035.0 1934.0 L 1034.0 1936.0 L 1046.0 1936.0 L 1068.0 1927.0 L 1076.0 1921.0 L 1086.0 1909.0 L 1092.0 1892.0 L 1092.0 1881.0 L 1088.0 1868.0 L 1088.0 1845.0 L 1090.0 1843.0 L 1121.0 1842.0 L 1133.0 1845.0 L 1144.0 1845.0 L 1146.0 1842.0 Z
    M 1068.0 1865.0 L 1070.0 1866.0 L 1073.0 1866.0 L 1077.0 1870.0 L 1078.0 1874.0 L 1079.0 1875.0 L 1078.0 1883.0 L 1073.0 1888.0 L 1071.0 1888.0 L 1070.0 1889.0 L 1064.0 1888.0 L 1059.0 1883.0 L 1058.0 1881.0 L 1058.0 1873.0 L 1059.0 1871.0 L 1063.0 1867.0 L 1067.0 1866.0 Z
    M 1116.0 1796.0 L 1116.0 1797.0 L 1118.0 1798.0 L 1126.0 1806.0 L 1126.0 1807.0 L 1131.0 1813.0 L 1133.0 1814.0 L 1136.0 1814.0 L 1139.0 1812.0 L 1140.0 1807.0 L 1139.0 1806.0 L 1139.0 1804.0 L 1136.0 1801.0 L 1129.0 1797.0 L 1126.0 1797.0 L 1125.0 1796.0 L 1122.0 1796.0 L 1121.0 1795.0 L 1117.0 1795.0 Z
    M 1207.0 1685.0 L 1207.0 1695.0 L 1252.0 1695.0 L 1252.0 1685.0 L 1251.0 1684.0 L 1208.0 1684.0 Z
    M 1117.0 1685.0 L 1117.0 1695.0 L 1162.0 1695.0 L 1162.0 1685.0 L 1161.0 1684.0 L 1118.0 1684.0 Z
    M 1027.0 1685.0 L 1027.0 1695.0 L 1072.0 1695.0 L 1072.0 1685.0 L 1071.0 1684.0 L 1028.0 1684.0 Z
    M 937.0 1685.0 L 937.0 1695.0 L 982.0 1695.0 L 982.0 1685.0 L 981.0 1684.0 L 938.0 1684.0 Z
    M 847.0 1685.0 L 847.0 1695.0 L 892.0 1695.0 L 892.0 1685.0 L 891.0 1684.0 L 848.0 1684.0 Z
    M 757.0 1685.0 L 757.0 1695.0 L 802.0 1695.0 L 802.0 1685.0 L 801.0 1684.0 L 758.0 1684.0 Z
    M 667.0 1685.0 L 667.0 1695.0 L 712.0 1695.0 L 712.0 1685.0 L 711.0 1684.0 L 668.0 1684.0 Z
    M 577.0 1685.0 L 577.0 1695.0 L 622.0 1695.0 L 622.0 1685.0 L 621.0 1684.0 L 578.0 1684.0 Z
    M 487.0 1685.0 L 487.0 1695.0 L 532.0 1695.0 L 532.0 1685.0 L 531.0 1684.0 L 488.0 1684.0 Z
    M 397.0 1685.0 L 397.0 1695.0 L 442.0 1695.0 L 442.0 1685.0 L 441.0 1684.0 L 398.0 1684.0 Z
    M 307.0 1685.0 L 307.0 1695.0 L 352.0 1695.0 L 352.0 1685.0 L 351.0 1684.0 L 308.0 1684.0 Z
    M 217.0 1685.0 L 217.0 1695.0 L 262.0 1695.0 L 262.0 1685.0 L 261.0 1684.0 L 218.0 1684.0 Z
    M 127.0 1685.0 L 127.0 1695.0 L 172.0 1695.0 L 172.0 1685.0 L 171.0 1684.0 L 128.0 1684.0 Z
    M 895.0 738.0 L 798.0 707.0 L 613.0 734.0 L 433.0 823.0 L 297.0 951.0 L 257.0 1037.0 L 277.0 1097.0 L 296.0 1093.0 L 297.0 1038.0 L 353.0 949.0 L 444.0 870.0 L 560.0 803.0 L 668.0 766.0 L 774.0 757.0 L 844.0 778.0 L 876.0 829.0 L 852.0 927.0 L 779.0 1018.0 L 630.0 1128.0 L 471.0 1198.0 L 642.0 865.0 L 614.0 848.0 L 578.0 870.0 L 396.0 1213.0 L 322.0 1238.0 L 332.0 1261.0 L 372.0 1268.0 L 269.0 1551.0 L 273.0 1618.0 L 299.0 1622.0 L 320.0 1599.0 L 427.0 1293.0 L 616.0 1519.0 L 706.0 1585.0 L 798.0 1622.0 L 884.0 1629.0 L 955.0 1613.0 L 1016.0 1575.0 L 1059.0 1519.0 L 1115.0 1509.0 L 1163.0 1470.0 L 1195.0 1395.0 L 1203.0 1306.0 L 1115.0 1332.0 L 1062.0 1373.0 L 1029.0 1440.0 L 1037.0 1506.0 L 992.0 1555.0 L 907.0 1587.0 L 809.0 1577.0 L 732.0 1542.0 L 643.0 1473.0 L 458.0 1251.0 L 690.0 1154.0 L 876.0 1005.0 L 920.0 938.0 L 947.0 852.0 L 937.0 790.0 Z
    M 1182.0 1334.0 L 1183.0 1336.0 L 1170.0 1356.0 L 1167.0 1359.0 L 1161.0 1369.0 L 1158.0 1372.0 L 1117.0 1430.0 L 1057.0 1505.0 L 1053.0 1503.0 L 1052.0 1500.0 L 1058.0 1493.0 L 1101.0 1436.0 L 1105.0 1432.0 L 1139.0 1386.0 L 1167.0 1351.0 Z
    M 743.0 608.0 L 743.0 635.0 L 745.0 638.0 L 747.0 639.0 L 754.0 639.0 L 755.0 640.0 L 770.0 640.0 L 771.0 639.0 L 778.0 639.0 L 780.0 638.0 L 781.0 636.0 L 778.0 633.0 L 778.0 621.0 L 776.0 623.0 L 776.0 625.0 L 773.0 631.0 L 770.0 633.0 L 767.0 633.0 L 766.0 634.0 L 756.0 634.0 L 755.0 633.0 L 753.0 633.0 L 752.0 632.0 L 752.0 613.0 L 754.0 612.0 L 755.0 610.0 L 752.0 608.0 Z
    M 737.0 610.0 L 735.0 608.0 L 725.0 608.0 L 725.0 622.0 L 724.0 623.0 L 724.0 625.0 L 722.0 629.0 L 716.0 635.0 L 710.0 638.0 L 702.0 640.0 L 700.0 641.0 L 700.0 642.0 L 707.0 642.0 L 708.0 641.0 L 716.0 640.0 L 726.0 635.0 L 730.0 631.0 L 732.0 627.0 L 732.0 625.0 L 733.0 624.0 L 733.0 620.0 L 734.0 619.0 L 734.0 613.0 Z
    M 698.0 614.0 L 700.0 616.0 L 705.0 616.0 L 707.0 615.0 L 709.0 612.0 L 709.0 610.0 L 710.0 609.0 L 710.0 605.0 L 711.0 604.0 L 767.0 604.0 L 768.0 605.0 L 768.0 607.0 L 764.0 614.0 L 764.0 616.0 L 767.0 615.0 L 775.0 609.0 L 779.0 609.0 L 781.0 608.0 L 781.0 606.0 L 774.0 599.0 L 772.0 599.0 L 769.0 602.0 L 710.0 602.0 L 708.0 600.0 L 708.0 599.0 L 707.0 599.0 L 705.0 605.0 L 698.0 611.0 Z
    M 591.0 591.0 L 588.0 588.0 L 588.0 587.0 L 587.0 587.0 L 584.0 584.0 L 573.0 579.0 L 568.0 579.0 L 567.0 578.0 L 554.0 578.0 L 553.0 579.0 L 548.0 579.0 L 547.0 580.0 L 544.0 580.0 L 541.0 582.0 L 539.0 582.0 L 532.0 586.0 L 529.0 589.0 L 528.0 589.0 L 520.0 598.0 L 517.0 605.0 L 517.0 618.0 L 518.0 619.0 L 518.0 621.0 L 522.0 626.0 L 527.0 629.0 L 529.0 629.0 L 530.0 630.0 L 536.0 629.0 L 541.0 624.0 L 541.0 623.0 L 547.0 615.0 L 554.0 601.0 L 554.0 599.0 L 556.0 596.0 L 556.0 594.0 L 558.0 590.0 L 560.0 588.0 L 560.0 586.0 L 557.0 583.0 L 558.0 582.0 L 564.0 582.0 L 565.0 583.0 L 568.0 583.0 L 574.0 586.0 L 581.0 593.0 L 583.0 597.0 L 584.0 607.0 L 583.0 608.0 L 583.0 612.0 L 580.0 618.0 L 572.0 626.0 L 563.0 631.0 L 561.0 631.0 L 554.0 634.0 L 555.0 635.0 L 557.0 635.0 L 558.0 634.0 L 563.0 634.0 L 564.0 633.0 L 567.0 633.0 L 568.0 632.0 L 573.0 631.0 L 583.0 626.0 L 590.0 619.0 L 593.0 613.0 L 593.0 610.0 L 594.0 609.0 L 594.0 598.0 Z
    M 549.0 583.0 L 551.0 585.0 L 551.0 589.0 L 549.0 592.0 L 549.0 594.0 L 547.0 597.0 L 547.0 599.0 L 540.0 613.0 L 538.0 615.0 L 536.0 619.0 L 533.0 622.0 L 529.0 622.0 L 525.0 618.0 L 525.0 616.0 L 524.0 615.0 L 524.0 606.0 L 525.0 605.0 L 525.0 603.0 L 527.0 599.0 L 529.0 597.0 L 529.0 596.0 L 537.0 588.0 L 538.0 588.0 L 542.0 585.0 L 544.0 585.0 L 547.0 583.0 Z
    M 609.0 572.0 L 609.0 623.0 L 611.0 625.0 L 613.0 624.0 L 614.0 627.0 L 605.0 639.0 L 605.0 641.0 L 613.0 637.0 L 623.0 628.0 L 623.0 626.0 L 616.0 621.0 L 618.0 619.0 L 629.0 620.0 L 628.0 623.0 L 623.0 623.0 L 628.0 629.0 L 629.0 635.0 L 635.0 637.0 L 633.0 641.0 L 636.0 640.0 L 644.0 632.0 L 648.0 625.0 L 652.0 610.0 L 652.0 600.0 L 654.0 598.0 L 656.0 600.0 L 657.0 609.0 L 663.0 623.0 L 655.0 632.0 L 640.0 642.0 L 646.0 641.0 L 658.0 635.0 L 665.0 629.0 L 668.0 629.0 L 682.0 641.0 L 691.0 634.0 L 678.0 628.0 L 672.0 623.0 L 681.0 604.0 L 686.0 600.0 L 679.0 593.0 L 676.0 593.0 L 672.0 597.0 L 654.0 597.0 L 652.0 595.0 L 652.0 580.0 L 654.0 578.0 L 691.0 578.0 L 687.0 573.0 L 681.0 571.0 L 674.0 577.0 L 654.0 577.0 L 645.0 573.0 L 644.0 615.0 L 641.0 627.0 L 637.0 633.0 L 635.0 627.0 L 631.0 624.0 L 636.0 621.0 L 636.0 582.0 L 640.0 578.0 L 633.0 571.0 L 626.0 575.0 L 618.0 575.0 Z
    M 618.0 605.0 L 628.0 605.0 L 629.0 606.0 L 629.0 615.0 L 627.0 617.0 L 618.0 617.0 L 616.0 615.0 L 616.0 607.0 Z
    M 660.0 598.0 L 672.0 598.0 L 673.0 599.0 L 673.0 603.0 L 672.0 604.0 L 671.0 609.0 L 669.0 612.0 L 669.0 614.0 L 666.0 617.0 L 664.0 615.0 L 659.0 604.0 L 659.0 601.0 L 658.0 600.0 Z
    M 618.0 591.0 L 628.0 591.0 L 629.0 592.0 L 629.0 601.0 L 627.0 603.0 L 618.0 603.0 L 616.0 601.0 L 616.0 593.0 Z
    M 618.0 577.0 L 628.0 577.0 L 629.0 578.0 L 629.0 587.0 L 627.0 589.0 L 618.0 589.0 L 616.0 587.0 L 616.0 579.0 Z
    M 974.0 575.0 L 974.0 576.0 L 979.0 576.0 L 980.0 577.0 L 980.0 618.0 L 977.0 620.0 L 973.0 620.0 L 973.0 622.0 L 978.0 629.0 L 980.0 629.0 L 983.0 625.0 L 989.0 624.0 L 990.0 623.0 L 996.0 622.0 L 997.0 621.0 L 1000.0 621.0 L 1001.0 622.0 L 1001.0 640.0 L 1002.0 641.0 L 1008.0 641.0 L 1010.0 639.0 L 1012.0 639.0 L 1018.0 636.0 L 1027.0 630.0 L 1032.0 625.0 L 1033.0 625.0 L 1042.0 634.0 L 1050.0 639.0 L 1051.0 639.0 L 1059.0 632.0 L 1048.0 627.0 L 1042.0 623.0 L 1038.0 619.0 L 1038.0 617.0 L 1041.0 613.0 L 1041.0 611.0 L 1046.0 601.0 L 1048.0 592.0 L 1052.0 590.0 L 1052.0 587.0 L 1045.0 581.0 L 1042.0 581.0 L 1042.0 582.0 L 1039.0 584.0 L 1011.0 584.0 L 1010.0 583.0 L 1010.0 577.0 L 1011.0 576.0 L 1025.0 576.0 L 1025.0 574.0 L 1019.0 570.0 L 1015.0 571.0 L 1012.0 574.0 L 975.0 574.0 Z
    M 991.0 604.0 L 999.0 604.0 L 1001.0 606.0 L 1001.0 616.0 L 999.0 618.0 L 990.0 618.0 L 989.0 617.0 L 989.0 606.0 Z
    M 989.0 592.0 L 990.0 591.0 L 1000.0 591.0 L 1001.0 592.0 L 1001.0 601.0 L 1000.0 602.0 L 990.0 602.0 L 989.0 601.0 Z
    M 1023.0 586.0 L 1038.0 586.0 L 1040.0 588.0 L 1039.0 590.0 L 1038.0 598.0 L 1037.0 599.0 L 1035.0 607.0 L 1032.0 612.0 L 1030.0 611.0 L 1025.0 602.0 L 1025.0 600.0 L 1024.0 599.0 L 1024.0 597.0 L 1022.0 593.0 L 1022.0 589.0 L 1021.0 588.0 Z
    M 1017.0 586.0 L 1019.0 590.0 L 1019.0 596.0 L 1020.0 597.0 L 1021.0 604.0 L 1022.0 605.0 L 1022.0 607.0 L 1024.0 610.0 L 1024.0 612.0 L 1028.0 620.0 L 1022.0 627.0 L 1022.0 628.0 L 1017.0 633.0 L 1016.0 633.0 L 1011.0 637.0 L 1010.0 636.0 L 1010.0 587.0 L 1011.0 586.0 Z
    M 989.0 577.0 L 990.0 576.0 L 1000.0 576.0 L 1001.0 577.0 L 1001.0 587.0 L 999.0 589.0 L 991.0 589.0 L 989.0 587.0 Z
    M 963.0 576.0 L 956.0 569.0 L 954.0 569.0 L 950.0 573.0 L 895.0 573.0 L 888.0 570.0 L 887.0 571.0 L 887.0 592.0 L 888.0 593.0 L 893.0 593.0 L 894.0 594.0 L 894.0 630.0 L 900.0 630.0 L 904.0 625.0 L 909.0 625.0 L 910.0 626.0 L 896.0 636.0 L 890.0 638.0 L 885.0 641.0 L 883.0 641.0 L 881.0 642.0 L 881.0 643.0 L 886.0 643.0 L 887.0 642.0 L 898.0 640.0 L 904.0 637.0 L 906.0 637.0 L 913.0 633.0 L 916.0 633.0 L 917.0 632.0 L 910.0 626.0 L 911.0 625.0 L 943.0 625.0 L 945.0 627.0 L 943.0 629.0 L 940.0 628.0 L 930.0 628.0 L 929.0 627.0 L 927.0 628.0 L 930.0 630.0 L 938.0 632.0 L 956.0 642.0 L 961.0 642.0 L 962.0 641.0 L 962.0 637.0 L 959.0 634.0 L 953.0 631.0 L 950.0 631.0 L 949.0 629.0 L 953.0 627.0 L 953.0 603.0 L 956.0 601.0 L 955.0 597.0 L 952.0 595.0 L 959.0 592.0 L 959.0 580.0 L 962.0 578.0 Z
    M 902.0 617.0 L 903.0 616.0 L 943.0 616.0 L 945.0 618.0 L 945.0 621.0 L 943.0 623.0 L 903.0 623.0 L 902.0 622.0 Z
    M 902.0 609.0 L 904.0 607.0 L 943.0 607.0 L 945.0 609.0 L 945.0 612.0 L 943.0 614.0 L 903.0 614.0 L 902.0 613.0 Z
    M 902.0 600.0 L 904.0 598.0 L 943.0 598.0 L 945.0 600.0 L 945.0 603.0 L 943.0 605.0 L 903.0 605.0 L 902.0 604.0 Z
    M 894.0 592.0 L 896.0 589.0 L 951.0 589.0 L 952.0 590.0 L 952.0 593.0 L 951.0 594.0 L 949.0 592.0 L 947.0 592.0 L 942.0 597.0 L 904.0 597.0 L 903.0 596.0 L 895.0 594.0 Z
    M 937.0 576.0 L 938.0 575.0 L 951.0 575.0 L 952.0 576.0 L 952.0 586.0 L 951.0 587.0 L 939.0 587.0 L 937.0 585.0 Z
    M 916.0 577.0 L 918.0 575.0 L 928.0 575.0 L 930.0 577.0 L 930.0 585.0 L 928.0 587.0 L 918.0 587.0 L 916.0 585.0 Z
    M 895.0 576.0 L 896.0 575.0 L 908.0 575.0 L 909.0 576.0 L 909.0 586.0 L 908.0 587.0 L 896.0 587.0 L 895.0 586.0 Z
    M 816.0 570.0 L 815.0 572.0 L 819.0 573.0 L 822.0 577.0 L 822.0 584.0 L 821.0 585.0 L 821.0 588.0 L 822.0 589.0 L 822.0 599.0 L 823.0 600.0 L 823.0 603.0 L 821.0 605.0 L 811.0 610.0 L 806.0 615.0 L 804.0 619.0 L 804.0 627.0 L 806.0 631.0 L 812.0 635.0 L 814.0 635.0 L 815.0 636.0 L 819.0 636.0 L 820.0 637.0 L 858.0 637.0 L 861.0 635.0 L 861.0 633.0 L 857.0 628.0 L 852.0 628.0 L 851.0 629.0 L 847.0 629.0 L 846.0 630.0 L 835.0 630.0 L 834.0 631.0 L 827.0 631.0 L 826.0 630.0 L 819.0 630.0 L 818.0 629.0 L 815.0 629.0 L 810.0 625.0 L 810.0 623.0 L 809.0 622.0 L 810.0 621.0 L 811.0 617.0 L 817.0 612.0 L 831.0 606.0 L 834.0 606.0 L 835.0 605.0 L 841.0 604.0 L 842.0 603.0 L 845.0 603.0 L 846.0 602.0 L 855.0 601.0 L 856.0 600.0 L 859.0 600.0 L 860.0 599.0 L 860.0 597.0 L 853.0 590.0 L 851.0 589.0 L 845.0 589.0 L 844.0 591.0 L 845.0 591.0 L 847.0 593.0 L 847.0 594.0 L 845.0 596.0 L 837.0 598.0 L 834.0 600.0 L 831.0 600.0 L 829.0 598.0 L 829.0 580.0 L 832.0 575.0 L 831.0 573.0 L 822.0 569.0 Z
    M 700.0 582.0 L 733.0 582.0 L 734.0 583.0 L 734.0 591.0 L 733.0 592.0 L 705.0 592.0 L 705.0 594.0 L 771.0 594.0 L 772.0 593.0 L 771.0 591.0 L 770.0 591.0 L 766.0 588.0 L 763.0 588.0 L 759.0 592.0 L 744.0 592.0 L 743.0 591.0 L 743.0 583.0 L 744.0 582.0 L 778.0 582.0 L 779.0 581.0 L 775.0 577.0 L 774.0 577.0 L 770.0 574.0 L 768.0 575.0 L 763.0 580.0 L 744.0 580.0 L 743.0 579.0 L 743.0 574.0 L 745.0 572.0 L 745.0 569.0 L 743.0 569.0 L 742.0 568.0 L 735.0 568.0 L 734.0 569.0 L 734.0 579.0 L 733.0 580.0 L 701.0 580.0 Z
    M 329.0 588.0 L 330.0 590.0 L 366.0 590.0 L 367.0 591.0 L 367.0 608.0 L 366.0 609.0 L 352.0 609.0 L 349.0 607.0 L 344.0 606.0 L 344.0 640.0 L 345.0 641.0 L 350.0 641.0 L 352.0 640.0 L 352.0 638.0 L 354.0 636.0 L 391.0 636.0 L 393.0 641.0 L 397.0 641.0 L 400.0 639.0 L 400.0 617.0 L 403.0 615.0 L 404.0 613.0 L 403.0 611.0 L 396.0 605.0 L 391.0 609.0 L 377.0 609.0 L 376.0 608.0 L 376.0 591.0 L 377.0 590.0 L 414.0 590.0 L 415.0 587.0 L 407.0 581.0 L 400.0 587.0 L 377.0 587.0 L 376.0 586.0 L 376.0 573.0 L 378.0 572.0 L 379.0 570.0 L 376.0 568.0 L 368.0 568.0 L 367.0 569.0 L 367.0 586.0 L 366.0 587.0 L 330.0 587.0 Z
    M 352.0 613.0 L 354.0 611.0 L 390.0 611.0 L 392.0 613.0 L 392.0 632.0 L 390.0 634.0 L 354.0 634.0 L 352.0 632.0 Z
    M 503.0 580.0 L 495.0 574.0 L 485.0 580.0 L 477.0 580.0 L 476.0 578.0 L 485.0 572.0 L 484.0 570.0 L 477.0 567.0 L 474.0 568.0 L 468.0 580.0 L 457.0 580.0 L 455.0 578.0 L 455.0 574.0 L 451.0 570.0 L 440.0 568.0 L 447.0 577.0 L 445.0 580.0 L 426.0 581.0 L 458.0 582.0 L 458.0 588.0 L 434.0 588.0 L 433.0 590.0 L 457.0 590.0 L 459.0 592.0 L 459.0 596.0 L 423.0 597.0 L 422.0 599.0 L 444.0 599.0 L 446.0 602.0 L 438.0 615.0 L 421.0 632.0 L 426.0 631.0 L 443.0 620.0 L 445.0 642.0 L 451.0 641.0 L 453.0 637.0 L 482.0 637.0 L 485.0 641.0 L 490.0 640.0 L 491.0 614.0 L 495.0 610.0 L 487.0 602.0 L 481.0 607.0 L 455.0 607.0 L 454.0 605.0 L 458.0 599.0 L 506.0 599.0 L 499.0 592.0 L 496.0 592.0 L 490.0 597.0 L 468.0 596.0 L 468.0 592.0 L 470.0 590.0 L 494.0 590.0 L 494.0 588.0 L 489.0 584.0 L 486.0 584.0 L 481.0 588.0 L 469.0 588.0 L 469.0 582.0 L 501.0 582.0 Z
    M 452.0 629.0 L 454.0 627.0 L 481.0 627.0 L 483.0 629.0 L 483.0 633.0 L 481.0 635.0 L 454.0 635.0 L 452.0 633.0 Z
    M 452.0 620.0 L 454.0 618.0 L 481.0 618.0 L 483.0 620.0 L 483.0 624.0 L 481.0 626.0 L 454.0 626.0 L 452.0 624.0 Z
    M 452.0 610.0 L 453.0 609.0 L 482.0 609.0 L 483.0 610.0 L 483.0 615.0 L 482.0 616.0 L 453.0 616.0 L 452.0 615.0 Z
    M 679.0 257.0 L 680.0 255.0 L 684.0 251.0 L 686.0 250.0 L 691.0 250.0 L 695.0 252.0 L 701.0 258.0 L 701.0 260.0 L 700.0 261.0 L 680.0 261.0 L 679.0 260.0 Z" fill="#FFFFFF" fill-rule="evenodd"/>
</svg>
