<?xml version="1.0" encoding="UTF-8"?>
<svg xmlns="http://www.w3.org/2000/svg" viewBox="0 0 2421.09 2161.4">
  <defs>
    <style>
      .cls-1, .cls-2 {
        fill: #fff;
      }

      .cls-1, .cls-3 {
        stroke-width: 5px;
      }

      .cls-1, .cls-3, .cls-4 {
        stroke: #231815;
        stroke-miterlimit: 10;
      }

      .cls-5, .cls-3, .cls-4 {
        fill: none;
      }

      .cls-6 {
        fill: #231815;
      }

      .cls-4 {
        stroke-dasharray: 45;
        stroke-width: 11px;
      }
    </style>
  </defs>
  <g id="_フレーム" data-name="フレーム">
    <rect class="cls-1" x="297.57" y="256.9" width="1344.05" height="1902" rx="101.71" ry="101.71"/>
    <circle class="cls-1" cx="969.59" cy="392.43" r="69.64"/>
    <circle class="cls-1" cx="969.59" cy="392.43" r="39"/>
    <path class="cls-3" d="M857.56,19.06c-9.07,26.14,7.36,54.9,27.74,72.46,20.38,17.56,45.32,29.13,63.31,49.42,23.57,26.59,32,67.23,21.12,101.86"/>
    <path class="cls-3" d="M982.11,359.23c-1.52,2.22-3.03,4.45-4.55,6.67-10.42,4.92-23.14-3.91-26.62-14.89s-.5-22.85,2.57-33.96,6.21-22.9,2.99-33.97c-1.98-6.83-6.24-12.77-8.66-19.46-2.41-6.69-2.5-15.13,2.79-19.89,8.7-7.83,21.88,1.24,25.23,12.46"/>
    <line class="cls-4" x1="396.93" y1="1682.98" x2="1551.6" y2="1682.98"/>
  </g>
  <g id="Rロゴ2">
    <g>
      <path class="cls-2" d="M1513.17,674.96v994.01H462.08v-994.01h1051.09ZM1471.54,1332.82l1.47-33.76c-72.09,15.06-126.5,33.36-160.48,97.77-16.81,31.85-20.82,67.13-5.04,101.79-63.69,103.17-195.49,100.99-297.94,41.19-118.16-71.32-201.96-187.07-283.12-297.37,147.46-40.38,279.39-107.73,387.04-210.19,47.05-44.78,80.97-97.56,98.01-158.39,20.43-72.95-17.63-143.84-91.36-162.15-20.74-5.16-46.38-12.17-67.2-11.65-53.95,1.34-103.8,6.46-153.61,22.52-96.37,31.07-184.15,77.03-259.61,143.89-44.36,39.31-82.35,82.63-105.14,137.04-13.41,32.03-10.01,78.28,13.59,86.62,4.64,1.64,15.49-1.75,18.28-4.39l-7.04-29.98c13.14-48.75,37.64-85.86,71.74-122.19,105.33-107.24,296.48-207.1,443.84-178.75,54.26,10.44,82.75,57.8,68.84,111.48-14,54.03-47.91,96.45-87.08,137.99-89.84,82.53-194.46,149.84-318.18,188.25,48.65-111.7,102.28-211.45,164.96-308.7,6.54-8.1,10.29-20.16,7.37-27.46-2.63-6.56-17.68-15.96-24.83-14.87-19.31,2.94-33.04,13.84-42.74,29.57-67.11,108.71-124.71,218.75-177.75,336.5l-55.68,8.05c-8.18,1.18-19.44,14.09-18.96,22.79.51,9.06,13.72,19.3,22.33,19.73l29.5,1.45c-38.9,93.09-73.79,182.66-101.42,278.45-6.25,21.67-11.09,44.41-2.76,67.71,3.15,8.84,25.17,11.85,32.36,8.33,8.45-4.14,16.47-13.73,19.64-25.08,29.36-104.94,63.67-206.25,106.31-304.56,52.53,73.56,99.12,137.02,157.07,196.92,48.23,47.41,98.47,88.43,160.18,115.51,115.31,50.16,254.55,29.33,314.48-85.05,98.55,2.77,138.8-83.95,142.93-179.01Z"/>
      <path class="cls-6" d="M1473.01,1299.06l-1.47,33.76c-4.13,95.06-44.38,181.78-142.93,179.01-59.93,114.38-199.17,135.21-314.48,85.05-61.71-27.08-111.95-68.1-160.18-115.51-57.95-59.9-104.54-123.36-157.07-196.92-42.64,98.31-76.95,199.62-106.31,304.56-3.17,11.35-11.19,20.94-19.64,25.08-7.19,3.52-29.21.51-32.36-8.33-8.33-23.3-3.49-46.04,2.76-67.71,27.63-95.79,62.52-185.36,101.42-278.45l-29.5-1.45c-8.61-.43-21.82-10.67-22.33-19.73-.48-8.7,10.78-21.61,18.96-22.79l55.68-8.05c53.04-117.75,110.64-227.79,177.75-336.5,9.7-15.73,23.43-26.63,42.74-29.57,7.15-1.09,22.2,8.31,24.83,14.87,2.92,7.3-.83,19.36-7.37,27.46-62.68,97.25-116.31,197-164.96,308.7,123.72-38.41,228.34-105.72,318.18-188.25,39.17-41.54,73.08-83.96,87.08-137.99,13.91-53.68-14.58-101.04-68.84-111.48-147.36-28.35-338.51,71.51-443.84,178.75-34.1,36.33-58.6,73.44-71.74,122.19l7.04,29.98c-2.79,2.64-13.64,6.03-18.28,4.39-23.6-8.34-27-54.59-13.59-86.62,22.79-54.41,60.78-97.73,105.14-137.04,75.46-66.86,163.24-112.82,259.61-143.89,49.81-16.06,99.66-21.18,153.61-22.52,20.82-.52,46.46,6.49,67.2,11.65,73.73,18.31,111.79,89.2,91.36,162.15-17.04,60.83-50.96,113.61-98.01,158.39-107.65,102.46-239.58,169.81-387.04,210.19,81.16,110.3,164.96,226.05,283.12,297.37,102.45,59.8,234.25,61.98,297.94-41.19-15.78-34.66-11.77-69.94,5.04-101.79,33.98-64.41,88.39-82.71,160.48-97.77ZM1461.93,1350.26l5.41-43.22c-25.62,7.13-48.51,12.97-70.69,21.41-69.81,26.6-111.63,105.56-81.58,171.42-83.68,126.82-233.55,104.84-350.3,18.07-100.48-74.68-173.81-177.74-250.33-280.28,135.8-33.57,260.92-95.08,367.33-184.98,74.11-62.62,151.72-170.67,120.77-261.42-28.78-84.39-145.13-92.58-233.85-76.57-135.84,24.53-261.48,90.3-358.38,188.45-47.5,48.11-110.48,147.73-55.5,181.94-1.36-18.77-3.59-39.7,3.98-56.27,64.27-140.68,241.46-244.87,390.46-278.85,46.59-10.63,92-11.84,136.34.72,55.1,15.61,80.57,68.09,63.31,123.25-47.86,152.93-271.42,285.49-425.46,331.93l66.17-137.03c34.52-71.48,74.38-135.09,117.23-203.83.69-7.86-16.66-18.08-23.25-16.25-6.58,1.84-21.66,6.65-25.85,13.11-73.33,113.19-132.25,230.4-188.05,353.37l-55.97,6.7c-5.37.65-13.48,6.94-15.65,11.4-1.73,3.56,5.29,16.83,9.25,16.74l47.24-1.13c-30.53,78.46-149.71,348.03-100.05,359.94,7.21,1.73,23.93-3.5,26.97-14.36,31.68-112.99,68.33-218.68,114.25-326.08,89.29,133.57,196.18,277.54,344.84,331.37,108.58,37.21,232.92,10.06,284.73-95.46,48.39,4.81,88.26-18.8,111.54-60.14,16.31-28.96,20.83-59.97,25.09-93.95Z"/>
      <path class="cls-6" d="M1467.34,1307.04l-5.41,43.22c-4.26,33.98-8.78,64.99-25.09,93.95-23.28,41.34-63.15,64.95-111.54,60.14-51.81,105.52-176.15,132.67-284.73,95.46-148.66-53.83-255.55-197.8-344.84-331.37-45.92,107.4-82.57,213.09-114.25,326.08-3.04,10.86-19.76,16.09-26.97,14.36-49.66-11.91,69.52-281.48,100.05-359.94l-47.24,1.13c-3.96.09-10.98-13.18-9.25-16.74,2.17-4.46,10.28-10.75,15.65-11.4l55.97-6.7c55.8-122.97,114.72-240.18,188.05-353.37,4.19-6.46,19.27-11.27,25.85-13.11,6.59-1.83,23.94,8.39,23.25,16.25-42.85,68.74-82.71,132.35-117.23,203.83l-66.17,137.03c154.04-46.44,377.6-179,425.46-331.93,17.26-55.16-8.21-107.64-63.31-123.25-44.34-12.56-89.75-11.35-136.34-.72-149,33.98-326.19,138.17-390.46,278.85-7.57,16.57-5.34,37.5-3.98,56.27-54.98-34.21,8-133.83,55.5-181.94,96.9-98.15,222.54-163.92,358.38-188.45,88.72-16.01,205.07-7.82,233.85,76.57,30.95,90.75-46.66,198.8-120.77,261.42-106.41,89.9-231.53,151.41-367.33,184.98,76.52,102.54,149.85,205.6,250.33,280.28,116.75,86.77,266.62,108.75,350.3-18.07-30.05-65.86,11.77-144.82,81.58-171.42,22.18-8.44,45.07-14.28,70.69-21.41Z"/>
    </g>
  </g>
  <g id="_テキスト" data-name="テキスト">
    <path class="cls-6" d="M2.41,5c3.22,0,3.22-5,0-5s-3.22,5,0,5h0Z"/>
    <g>
      <path class="cls-6" d="M589.96,1849.45c4.63.3,9,1.34,13.12,3.1,5.7,2.32,10.61,5.83,14.73,10.52,5.29,6.16,7.94,13.17,7.94,21.04,0,9.24-3.38,17.26-10.15,24.07-5.75,5.8-13.56,10.35-23.42,13.63-11.95,3.99-23.78,6.11-35.48,6.36-2.09,0-3.13-.45-3.13-1.36s.84-1.54,2.52-1.89c10.63-2.52,19.43-5.47,26.4-8.86,9.56-4.49,16.63-9.82,21.21-15.97,4.17-5.7,6.26-12.16,6.26-19.38,0-8.78-2.39-15.34-7.17-19.68-3.71-3.53-8.39-5.75-14.04-6.66-2.49,3.74-4.17,6.28-5.04,7.65-5.85,9.44-14.91,19.96-27.16,31.57.31.71,1.5,2.72,3.59,6.06,1.07,1.46,1.6,3.05,1.6,4.77,0,1.46-.55,2.69-1.64,3.67-1.09.98-2.43,1.48-4.01,1.48s-3.2-.73-5.04-2.2c-1.73-1.41-3.23-3.2-4.5-5.38-12.72,9.59-22.97,14.38-30.75,14.38s-11.75-5.02-11.75-15.06c0-5.2,1.86-10.77,5.57-16.73,3.2-5.15,7.4-9.94,12.59-14.38,5.85-5.1,12.41-9.29,19.69-12.57.41-7.27,1.07-14.76,1.98-22.48-4.32.56-8.39.83-12.21.83-4.99,0-8.95-.88-11.9-2.65-2.39-1.41-4.45-3.63-6.18-6.66-1.17-1.71-1.75-3.18-1.75-4.39,0-.81.35-1.21,1.07-1.21.25,0,.94.45,2.06,1.36,3.92,2.93,8.82,4.39,14.73,4.39,4.78,0,10.05-.58,15.79-1.74.1-.86.43-4.21.99-10.07.2-2.47.31-4.14.31-5,0-1.71-.38-2.98-1.14-3.79-.41-.45-1.4-1.11-2.98-1.97-.81-.45-2.16-.91-4.04-1.36-1.48-.35-2.21-.88-2.21-1.59,0-.5.69-1.21,2.06-2.12,1.98-1.46,4.27-2.2,6.87-2.2,3.71,0,8.24,1.62,13.58,4.84,3.66,2.17,5.49,4.39,5.49,6.66,0,1.26-1.09,2.8-3.28,4.62-1.73,1.41-3.1,4.57-4.12,9.46,11.24-3.18,19-6.21,23.27-9.08,1.58-1.06,4.35-1.59,8.32-1.59,2.19,0,4.04.56,5.57,1.67,1.37.96,2.06,2.12,2.06,3.48s-.43,2.55-1.3,3.41c-.46.45-1.48,1.16-3.05,2.12-2.14,1.36-8.14,3.43-18.01,6.21-6.82,2.02-13.15,3.63-19,4.84-1.63,6.71-2.62,13.27-2.98,19.68,7.48-2.47,16.02-4.14,25.64-5,.05-.4.08-.73.08-.98s-.03-.58-.08-.98c-.15-.96-1.27-2.32-3.36-4.09-1.02-1.06-1.53-1.67-1.53-1.82,0-1.16,1.4-1.74,4.2-1.74,3.76,0,7.25,1.62,10.45,4.84,1.88,1.87,2.82,3.31,2.82,4.32,0,.76-.05,1.29-.15,1.59ZM543.57,1893.43c-1.27-6.11-2.01-12.04-2.21-17.79-.1-2.17-.15-5.75-.15-10.75-8.9,5.65-15.49,11.66-19.76,18.02-3.66,5.25-5.49,10.35-5.49,15.29,0,4.14,1.3,6.21,3.89,6.21,3.56,0,7.04-.86,10.45-2.57,2.8-1.41,7.22-4.21,13.28-8.4ZM551.58,1859.67v2.35c0,8.58.61,16.33,1.83,23.24,7.94-7.52,15.64-18.07,23.12-31.64-7.94.71-16.25,2.73-24.95,6.06Z"/>
      <path class="cls-6" d="M782.24,1863.53c0,1.72-.56,3.21-1.68,4.47-1.07,1.16-2.39,1.74-3.97,1.74s-4.81-.1-9.84-.3c-4.43-.3-8.85-.45-13.28-.45-21.52,0-41,.78-58.45,2.35-8.29.66-13.46,1.64-15.49,2.95-1.17.81-2.57,1.21-4.2,1.21-3.41,0-7.58-3.56-12.51-10.67-1.98-2.78-2.98-5.58-2.98-8.4,0-2.47.64-3.71,1.91-3.71.41,0,1.07.45,1.98,1.36,2.8,2.73,5.29,4.47,7.48,5.22,1.32.45,3.2.68,5.65.68,3.25,0,8.72-.25,16.41-.76,20.86-1.31,39.32-2.14,55.4-2.5,5.65-.15,9.69-.88,12.13-2.2,1.68-.81,3.15-1.21,4.43-1.21,2.29,0,4.63.5,7.02,1.51,6.66,2.83,10,5.73,10,8.71Z"/>
      <path class="cls-6" d="M856.17,1867.69l.15.3c9.92-8.68,20.5-13.02,31.74-13.02s20.35,3.1,27.62,9.31c3.2,2.68,5.77,6.13,7.71,10.37,1.73,3.89,2.59,7.82,2.59,11.81,0,13.07-5.27,23.24-15.79,30.51-8.8,6.11-19.1,9.16-30.9,9.16-9.61,0-16.81-1.54-21.59-4.62-5.29-3.48-7.94-8.25-7.94-14.31,0-4.64,1.83-8.3,5.49-10.98,3.51-2.47,7.83-3.71,12.97-3.71,6.56,0,12.49,2.62,17.78,7.87,3.66,3.84,6.33,8.13,8.01,12.87,4.48-1.82,8.09-4.44,10.83-7.87,3.76-4.59,5.65-10.85,5.65-18.77s-2.54-13.73-7.63-18.62c-4.12-3.94-10.02-5.9-17.7-5.9-9,0-17.4,2.95-25.18,8.86-5.8,4.39-11.78,10.85-17.93,19.38-2.95,4.14-5.49,6.21-7.63,6.21-1.58,0-3.08-.63-4.5-1.89-1.88-1.46-2.82-3.36-2.82-5.68,0-2.73.99-5.07,2.98-7.04,12.82-13.58,22.79-24.53,29.91-32.85,7.58-8.93,15.67-19.13,24.26-30.58,1.17-1.61,1.75-2.65,1.75-3.1,0-.76-.43-1.14-1.3-1.14-.2,0-.41.03-.61.08-3.66,1.01-9.13,3.21-16.4,6.59-2.29,1.11-5.24,2.6-8.85,4.47-2.09,2.07-4.22,3.1-6.41,3.1-2.49,0-4.83-1.24-7.02-3.71-4.07-4.69-6.1-8.6-6.1-11.73,0-1.31.31-2.65.92-4.01.56-1.16,1.09-1.74,1.6-1.74s1.45.93,2.82,2.8c2.29,2.98,4.48,4.47,6.56,4.47,5.14,0,14.01-2.07,26.63-6.21,3.71-1.16,6.23-2.5,7.55-4.01,1.17-1.36,2.57-2.04,4.2-2.04,4.07,0,8.75,2.17,14.04,6.51,1.98,1.62,2.98,3.43,2.98,5.45,0,1.77-.84,3.1-2.52,4.01-3,1.72-5.04,3-6.1,3.86-4.63,3.99-11.75,11.53-21.36,22.63-2.09,2.37-5.65,6.36-10.68,11.96-3.87,4.24-7.12,7.9-9.77,10.98ZM881.81,1916.37c-1.48-5.85-3.92-10.35-7.32-13.48-3.36-2.98-6.64-4.47-9.84-4.47s-5.77.88-7.25,2.65c-1.02,1.36-1.53,3-1.53,4.92,0,3.48,1.5,6.11,4.5,7.87,3.41,1.97,8.32,2.95,14.73,2.95,2.9,0,5.14-.15,6.71-.45Z"/>
      <path class="cls-6" d="M1042.73,1830.52c4.93-1.56,9.05-3.08,12.36-4.54,2.95-1.26,5.06-2.5,6.33-3.71,2.19-1.87,5.16-2.8,8.93-2.8,6.05,0,9.08,2.12,9.08,6.36,0,2.52-2.82,4.79-8.47,6.81-10.12,3.63-18.29,6.43-24.49,8.4,3.97,8.68,8.14,16.33,12.51,22.94,2.24,3.43,5.21,6.64,8.93,9.61,2.59,2.12,3.89,6.06,3.89,11.81,0,4.95-1.93,7.42-5.8,7.42-2.24,0-5.09-1.87-8.55-5.6-3.41-3.48-8.65-6.36-15.72-8.63-5.54-1.77-10.63-2.65-15.26-2.65-9.16,0-16.02,1.77-20.6,5.3-4.17,3.28-6.26,7.09-6.26,11.43,0,6.41,3.81,11.23,11.45,14.46,5.7,2.42,14.96,3.71,27.77,3.86,1.32,0,2.72-.1,4.2-.3,1.02-.25,2.16-.38,3.43-.38,4.22,0,7.88.98,10.99,2.95,3,1.87,4.5,4.04,4.5,6.51,0,4.89-4.73,7.34-14.19,7.34-17.65,0-31.46-2.75-41.43-8.25-5.09-2.78-9.03-6.28-11.83-10.52-2.65-3.99-3.97-8.23-3.97-12.72,0-5.1,1.65-9.66,4.96-13.7,2.64-3.23,6.05-5.8,10.22-7.72,6.56-3.08,14.14-4.62,22.74-4.62,7.17,0,14.67.61,22.51,1.82-4.32-7.01-8.95-16.25-13.89-27.71-10.63,2.68-19.84,4.01-27.62,4.01-6.05,0-10.76-.73-14.12-2.2-4.27-1.92-8.37-5.27-12.28-10.07-1.17-1.31-1.75-2.3-1.75-2.95,0-.91.41-1.36,1.22-1.36.15,0,1.25.68,3.28,2.04,4.88,3.18,10.78,4.77,17.7,4.77,7.68,0,17.58-1.49,29.68-4.47-.41-1.26-1.07-3.25-1.98-5.98-1.93-6-3.56-10.88-4.88-14.61-1.02-2.83-2.37-4.54-4.04-5.15-1.58-.5-3.1-.76-4.58-.76h-2.98c-.71,0-1.07-.4-1.07-1.21,0-1.16.84-2.57,2.52-4.24,1.78-1.97,4.22-2.95,7.33-2.95,5.39,0,10.12,1.54,14.19,4.62,2.08,1.62,3.13,3.33,3.13,5.15,0,.66-.25,1.59-.76,2.8-.3.81-.46,2.3-.46,4.47,0,3.03,1.04,8,3.13,14.91Z"/>
      <path class="cls-6" d="M1181.98,1864.44c-4.88,11.41-8.16,20.09-9.84,26.04-1.37,4.49-2.06,7.24-2.06,8.25,0,1.31.36,2.7,1.07,4.16,1.68,2.88,2.52,5.1,2.52,6.66,0,1.82-.56,3.33-1.68,4.54-1.12,1.21-2.54,1.82-4.27,1.82-5.04,0-10.02-2.22-14.96-6.66-8.65-7.72-14.07-17.84-16.25-30.36-1.37-6.86-2.06-15.34-2.06-25.44l.15-14.08c0-2.77-.05-5.25-.15-7.42-.15-3.68-2.29-7.57-6.41-11.66-.71-.71-1.07-1.26-1.07-1.67,0-1.06,1.09-1.59,3.28-1.59,3.2,0,6.94,1.87,11.22,5.6,5.95,4.9,8.93,9.44,8.93,13.63,0,2.47-.46,4.47-1.37,5.98-1.78,5.3-2.67,12.74-2.67,22.33,0,8.53,1.14,15.77,3.43,21.73,1.93,5.05,4.22,7.57,6.87,7.57,1.12,0,2.37-.93,3.74-2.8.1-.1,5.95-9.13,17.55-27.1,1.37-2.07,2.39-3.1,3.05-3.1,1.07,0,1.6.38,1.6,1.13,0,.81-.2,1.62-.61,2.42ZM1212.58,1836.88c3.71,0,8.32,1.54,13.81,4.62,9.36,5.35,16.33,12.29,20.91,20.82,3.76,6.96,5.65,13.73,5.65,20.29,0,5.3-.79,9.01-2.37,11.13-1.53,2.17-3.33,3.25-5.42,3.25-2.65,0-4.58-.98-5.8-2.95-1.63-2.52-3.64-4.34-6.03-5.45-2.49-1.16-5.95-1.92-10.38-2.27-1.58-.15-2.37-.68-2.37-1.59,0-.55.99-1.11,2.98-1.67,4.88-1.46,8.52-2.7,10.91-3.71,1.68-.76,2.52-1.99,2.52-3.71,0-2.37-.74-5.5-2.21-9.39-1.37-3.68-3.13-7.12-5.26-10.3-4.32-6.46-9.74-11.73-16.25-15.82-1.37-.96-2.06-1.69-2.06-2.2,0-.71.46-1.06,1.37-1.06Z"/>
      <path class="cls-6" d="M1358.85,1827.72c10.88-.86,19.08-1.59,24.57-2.2,3.51-.46,5.85-.96,7.02-1.51,2.29-1.06,4.02-1.59,5.19-1.59,5.9,0,11.11,1.44,15.64,4.32,3,1.87,4.5,4.29,4.5,7.27s-1.68,4.47-5.04,4.62c-.36.05-.74.08-1.14.08-1.73,0-3.89-.28-6.49-.83-7.99-1.71-13.84-2.57-17.55-2.57-9.97,0-19.03.3-27.16.91-.3,15.85-.46,24.12-.46,24.83,2.59,5.9,3.89,12.11,3.89,18.62,0,14.33-6.26,26.47-18.77,36.41-7.27,5.85-16.61,10.19-28,13.02-3.97,1.06-6.87,1.59-8.7,1.59-1.48,0-2.21-.53-2.21-1.59,0-.96.63-1.67,1.91-2.12,21.87-7.72,35.4-19.73,40.59-36.03-2.39,1.26-5.19,1.89-8.39,1.89h-.76c-4.63-.35-8.39-1.77-11.29-4.24-4.48-3.73-6.71-8.73-6.71-14.99s2.19-11.3,6.56-14.99c3.97-3.23,8.29-4.84,12.97-4.84,2.8,0,5.44.3,7.94.91v-5.22c0-2.88-.05-6.86-.15-11.96-11.6,1.26-24.19,3.53-37.77,6.81-3.41.91-6.49,2.25-9.23,4.01-1.73,1.16-3.46,1.74-5.19,1.74-3.15,0-6.49-1.59-10-4.77-4.99-4.64-7.48-8.53-7.48-11.66,0-1.01.15-1.84.46-2.5.36-.81.89-1.21,1.6-1.21.41,0,.86.25,1.37.76,4.48,3.84,9.05,5.75,13.73,5.75,1.42,0,5.14-.48,11.14-1.44,13.28-2.17,27.06-4.14,41.36-5.9,0-2.47-.1-7.75-.31-15.82,0-2.78-.2-4.57-.61-5.38-.66-1.56-2.06-2.45-4.2-2.65l-5.95-.61c-1.17-.2-1.75-.63-1.75-1.29,0-.86.84-1.94,2.52-3.26,2.8-2.37,5.54-3.56,8.24-3.56,4.22,0,8.93,1.72,14.12,5.15,3,1.97,4.5,3.96,4.5,5.98,0,1.57-.71,3.08-2.14,4.54-1.07,1.06-1.65,2.15-1.75,3.26-.25,3.33-.46,7.42-.61,12.26ZM1338.86,1858.76c-3.2,0-5.8.98-7.78,2.95-2.19,2.17-3.28,5-3.28,8.48s.94,6.33,2.82,8.4c1.98,2.27,4.73,3.41,8.24,3.41,2.9,0,5.24-.88,7.02-2.65,1.88-1.87,2.82-4.87,2.82-9.01,0-3.38-.79-6.11-2.37-8.18-1.78-2.27-4.27-3.41-7.48-3.41ZM1375.71,1796.99c5.19,1.01,9.51,2.83,12.97,5.45,3.87,2.98,5.8,6.08,5.8,9.31,0,1.51-.48,2.8-1.45,3.86-.97,1.06-2.21,1.59-3.74,1.59-2.19,0-3.94-1.19-5.26-3.56-3.05-5.5-6.33-10.07-9.84-13.7-1.17-1.16-1.75-1.84-1.75-2.04,0-.45.25-.76.76-.91.36-.1.81-.15,1.37-.15s.94.05,1.14.15ZM1389.14,1788.66c5.75.61,10.71,2.2,14.88,4.77,3.76,2.42,5.65,5.07,5.65,7.95,0,1.82-.53,3.28-1.6,4.39-.92.91-2.01,1.36-3.28,1.36-2.44,0-4.35-1.14-5.72-3.41-2.9-4.79-6.54-8.83-10.91-12.11-1.27-.96-1.91-1.59-1.91-1.89,0-.5.15-.83.46-.98.3-.15.71-.23,1.22-.23.2,0,.61.05,1.22.15Z"/>
    </g>
    <g>
      <path class="cls-6" d="M580.45,2040.27l-2.79-4.01-6.47-9.73c-2.28-3.48-3.97-5.76-5.08-6.86-.64-.57-1.29-.96-1.96-1.17-.53-.16-1.36-.28-2.49-.38-.4-.04-.6-.29-.6-.76,0-.57.2-.85.6-.85,4.2.16,7.37.23,9.49.23,2.37,0,5.56-.08,9.59-.23.35,0,.53.26.53.79,0,.49-.15.76-.46.82-1.62.16-2.64.31-3.09.47-.64.2-1.03.54-1.16,1.03-.04.2-.07.39-.07.59,0,.51.24,1.16.73,1.96.13.2.39.59.76,1.17.29.41.52.75.7,1.03l6.11,9.61c.93,1.37,1.61,2.4,2.06,3.11.84-1.07,1.49-2.01,1.96-2.81l5.64-9.4c1.04-1.8,1.56-3.06,1.56-3.78,0-.35-.08-.71-.23-1.08-.38-.98-1.84-1.6-4.38-1.88-.4-.04-.6-.29-.6-.76,0-.39.04-.63.13-.73.09-.08.29-.12.6-.12,3.41.16,6.17.23,8.3.23,1.53,0,4.03-.08,7.5-.23.4,0,.6.26.6.79s-.22.78-.66.82c-1.79.2-3.38.82-4.78,1.88-1.66,1.23-3.45,3.29-5.38,6.18l-6.31,9.4c-.38.59-.8,1.2-1.26,1.85-.58.82-.91,1.29-1,1.41l-.07,4.07v6.3c0,3.46.02,5.47.07,6.04.07.8.24,1.45.53,1.93.35.62,1.05,1.04,2.09,1.23.4.08,1.53.2,3.38.35.35.04.53.29.53.76s-.18.73-.53.73c-.13,0-1.97-.04-5.51-.12-1.86-.04-3.38-.06-4.58-.06-1.26,0-2.94.02-5.04.06-2.59.08-4.05.12-4.38.12-.46,0-.7-.24-.7-.73s.2-.72.6-.76c1.77-.16,2.89-.3,3.35-.44.75-.21,1.27-.6,1.56-1.14.44-.88.66-3.54.66-7.97v-6.36l-.07-2.58Z"/>
      <path class="cls-6" d="M631.33,2015.55c8.25,0,14.88,2.39,19.88,7.18,4.34,4.16,6.5,9.35,6.5,15.56,0,7.13-2.8,12.89-8.4,17.29-4.85,3.81-10.84,5.71-17.99,5.71-8.19,0-14.79-2.45-19.81-7.35-4.31-4.22-6.47-9.39-6.47-15.53,0-7.09,2.79-12.81,8.36-17.17,4.84-3.79,10.82-5.68,17.92-5.68ZM631.33,2017.6c-5.35,0-9.59,2.15-12.71,6.45-2.74,3.73-4.12,8.48-4.12,14.24,0,6.76,1.75,12.06,5.24,15.91,3.01,3.32,6.87,4.98,11.58,4.98,5.44,0,9.72-2.14,12.84-6.42,2.72-3.73,4.08-8.49,4.08-14.27,0-6.76-1.77-12.07-5.31-15.94-3.05-3.3-6.92-4.95-11.62-4.95Z"/>
      <path class="cls-6" d="M678.45,2037.4v11.81c0,3.16.06,5.17.17,6.01.09.76.31,1.42.66,1.96.42.61,1.07,1.02,1.96,1.23.44.1,1.45.21,3.02.35.44.04.66.29.66.76s-.22.73-.66.73c-3.25-.12-6.5-.18-9.76-.18s-6.48.06-9.29.18c-.51,0-.76-.24-.76-.73s.2-.72.6-.76c1.73-.18,2.78-.31,3.15-.41.71-.21,1.22-.61,1.53-1.17.55-.88.83-3.54.83-7.97v-21.77c0-3.14-.03-5.07-.1-5.77-.09-.76-.3-1.45-.63-2.05-.33-.57-.98-.95-1.96-1.14-.44-.08-1.49-.2-3.15-.35-.31-.04-.46-.29-.46-.76,0-.57.2-.85.6-.85,3.92.16,7.13.23,9.66.23,2.37,0,5.48-.08,9.33-.23.49,0,.73.26.73.79,0,.35-.06.58-.17.67-.11.08-.32.13-.63.15-1.55.16-2.53.3-2.95.44-.53.18-.97.53-1.33,1.05-.69,1.21-1.03,3.82-1.03,7.82v9.29c1.95-1.5,3.65-2.94,5.11-4.31l7.6-7.03c2.9-2.66,4.35-4.5,4.35-5.54,0-.21-.03-.43-.1-.64-.18-.51-1.19-.85-3.05-1.03-.4-.04-.6-.31-.6-.82s.2-.73.6-.73c1.68.08,4.31.12,7.9.12,2.1,0,4.86-.08,8.26-.23.35,0,.53.26.53.79s-.18.78-.53.82c-1.95.21-3.93.9-5.94,2.05-3.27,1.89-6.08,3.88-8.43,5.95l-6.44,5.68c-1,.88-1.9,1.66-2.72,2.34l16.23,17.81c2.7,3.01,4.79,4.91,6.27,5.71.88.53,2.36.89,4.41,1.08.31.04.46.29.46.76s-.18.73-.53.73c-2.61-.12-4.81-.18-6.6-.18-3.5,0-5.92.02-7.27.06-1.68-2.21-3.47-4.38-5.38-6.53-1.17-1.35-2.83-3.25-4.98-5.71-4.29-4.96-7.35-8.46-9.16-10.49Z"/>
      <path class="cls-6" d="M737.69,2015.55c8.25,0,14.88,2.39,19.88,7.18,4.34,4.16,6.5,9.35,6.5,15.56,0,7.13-2.8,12.89-8.4,17.29-4.85,3.81-10.84,5.71-17.99,5.71-8.19,0-14.79-2.45-19.81-7.35-4.31-4.22-6.47-9.39-6.47-15.53,0-7.09,2.79-12.81,8.36-17.17,4.84-3.79,10.82-5.68,17.92-5.68ZM737.69,2017.6c-5.35,0-9.59,2.15-12.71,6.45-2.74,3.73-4.12,8.48-4.12,14.24,0,6.76,1.75,12.06,5.24,15.91,3.01,3.32,6.87,4.98,11.58,4.98,5.44,0,9.72-2.14,12.84-6.42,2.72-3.73,4.08-8.49,4.08-14.27,0-6.76-1.77-12.07-5.31-15.94-3.05-3.3-6.92-4.95-11.62-4.95Z"/>
      <path class="cls-6" d="M784.65,2038.66v14.59c0,2.09.19,3.45.56,4.07.38.57,1.08.95,2.12,1.14.46.08,1.56.2,3.29.35.4.04.6.27.6.7,0,.49-.22.73-.66.73-.71-.02-1.81-.04-3.32-.06-3.05-.08-5.28-.12-6.67-.12-3.3,0-6.49.06-9.59.18-.31,0-.46-.22-.46-.67s.15-.72.46-.76c1.81-.16,2.92-.29,3.32-.41.69-.2,1.18-.56,1.49-1.08.46-.66.74-1.77.83-3.31.04-.7.07-2.3.07-4.8v-21.77c0-3.07-.06-5-.17-5.8-.09-.76-.33-1.46-.73-2.08-.29-.53-.9-.89-1.83-1.08-.46-.1-1.54-.21-3.22-.35-.35-.04-.53-.29-.53-.76,0-.57.18-.85.53-.85.49,0,2.26.05,5.31.15,1.9.06,3.41.09,4.51.09,1.24,0,2.95-.04,5.14-.12,2.3-.06,3.75-.1,4.35-.12.55,0,.83.28.83.85,0,.45-.22.7-.66.76-1.79.18-2.89.31-3.29.41-.73.2-1.27.54-1.63,1.03-.44.84-.66,3.47-.66,7.88v8.53c2.9.12,6.95.18,12.15.18s8.96-.06,11.81-.18v-8.53c0-3.16-.03-5.11-.1-5.83-.07-.78-.25-1.46-.56-2.05-.33-.55-1-.92-1.99-1.11-.35-.06-1.44-.17-3.25-.32-.35-.04-.53-.29-.53-.76,0-.57.2-.85.6-.85.49,0,2.28.05,5.38.15,1.92.06,3.47.09,4.65.09s2.81-.04,4.98-.12c2.23-.06,3.69-.1,4.38-.12.55,0,.83.26.83.79s-.25.78-.76.82c-1.86.18-3.03.34-3.5.48-.48.15-.87.46-1.18.95-.64.94-.96,3.56-.96,7.88v21.77c0,3.18.06,5.2.17,6.04.09.78.33,1.47.73,2.08.38.57,1.05.95,2.02,1.14.46.1,1.56.21,3.29.35.31.04.46.29.46.76s-.2.67-.6.67c-.8-.02-1.92-.04-3.39-.06-3.05-.08-5.22-.12-6.5-.12-.15,0-3.37.06-9.66.18-.4,0-.6-.22-.6-.67s.2-.72.6-.76c1.75-.16,2.83-.29,3.25-.41.64-.2,1.12-.56,1.43-1.08.55-.94.83-3.64.83-8.12v-10.55c-2.85-.16-6.79-.23-11.81-.23s-9.25.08-12.15.23Z"/>
      <path class="cls-6" d="M856.06,2043.76c-3.05-.16-5.64-.23-7.77-.23-1.75,0-4.56.08-8.43.23l-2.59,6.3c-.75,1.86-1.13,3.4-1.13,4.63,0,.74.14,1.44.43,2.08.46.98,2.22,1.62,5.28,1.93.4,0,.6.25.6.76s-.25.79-.76.79c-1.66-.08-4.48-.12-8.46-.12-3.27,0-5.65.04-7.13.12-.51,0-.76-.26-.76-.79s.25-.76.76-.76c1.37-.2,2.7-.82,3.98-1.88,1.31-1.13,2.69-3.47,4.15-7l8.16-19.45c2.04-4.84,3.67-9.04,4.91-12.6l5.34-2.17c.49,0,.79.19.9.56.33.9,2.21,5.75,5.64,14.56l7.67,19.57c1.37,3.57,2.51,5.85,3.42,6.83.57.64,1.17,1.05,1.79,1.23.46.14,1.33.25,2.59.35.6,0,.9.25.9.76s-.3.79-.9.79c-4.03-.08-7.23-.12-9.62-.12s-5.54.04-9.59.12c-.35,0-.53-.26-.53-.79s.18-.76.53-.76c2.83-.14,4.4-.66,4.71-1.58.13-.35.2-.73.2-1.14,0-1.02-.48-2.73-1.43-5.16l-2.85-7.06ZM848.16,2022.99l-3.05,7.73-4.35,10.63c1.48.08,3.99.12,7.53.12,3.23,0,5.5-.04,6.8-.12l-4.08-10.52c-.73-1.84-1.68-4.45-2.85-7.85Z"/>
      <path class="cls-6" d="M923.99,2016.63c1.55.04,4.03.06,7.43.06,2.92,0,5.62-.06,8.1-.18.4,0,.6.26.6.79s-.2.78-.6.82c-1.84.16-2.97.29-3.39.41-.64.2-1.13.56-1.46,1.08-.69,1.04-1.03,3.05-1.03,6.04v1.79l.4,21.77c.07,3.01.18,5,.33,5.98.13.7.37,1.37.7,1.99.35.61,1,1.02,1.92,1.23.46.1,1.53.21,3.19.35.4.04.6.29.6.76s-.22.73-.66.73c-3.16-.12-6.55-.18-10.15-.18s-6.63.06-9.59.18c-.35,0-.53-.26-.53-.79,0-.43.18-.66.53-.7,1.77-.16,2.85-.29,3.25-.41.69-.21,1.19-.61,1.53-1.17.55-.82.83-2.67.83-5.54v-2.43l-.3-26.28h-.6l-9.92,21.47c-1.04,2.29-2.41,5.23-4.12,8.85-1.28,2.73-2.27,4.84-2.95,6.33-.2.45-.63.67-1.29.67-.71,0-1.16-.22-1.36-.67-1.26-2.95-3.44-7.61-6.54-13.97l-10.79-22.68h-.83l-.13,26.28c0,3.89.43,6.45,1.29,7.68.64.88,2.31,1.5,5.01,1.88.46.04.7.27.7.7,0,.53-.25.79-.76.79-2.61-.12-5.21-.18-7.8-.18s-5.27.06-7.9.18c-.44,0-.66-.24-.66-.73,0-.45.22-.7.66-.76,2.37-.35,3.89-.98,4.58-1.88.95-1.39,1.49-3.95,1.63-7.68l.66-21.77c.04-1.21.07-2.17.07-2.87,0-2.44-.32-4.09-.96-4.95-.42-.57-1.21-.95-2.36-1.14-.2-.04-1.23-.16-3.09-.35-.4-.06-.6-.33-.6-.82,0-.53.18-.79.53-.79,2.68.12,5.29.18,7.83.18,3.5,0,6.17-.02,8.03-.06.77,2.3,1.7,4.61,2.79,6.91l9.52,20.04c1.11,2.34,2.21,4.78,3.32,7.29.09-.2,1.13-2.59,3.12-7.18l8.3-19.28c1.06-2.46,2.04-5.06,2.92-7.79Z"/>
      <path class="cls-6" d="M973.34,2043.76c-3.05-.16-5.64-.23-7.77-.23-1.75,0-4.56.08-8.43.23l-2.59,6.3c-.75,1.86-1.13,3.4-1.13,4.63,0,.74.14,1.44.43,2.08.46.98,2.22,1.62,5.28,1.93.4,0,.6.25.6.76s-.25.79-.76.79c-1.66-.08-4.48-.12-8.46-.12-3.27,0-5.65.04-7.13.12-.51,0-.76-.26-.76-.79s.25-.76.76-.76c1.37-.2,2.7-.82,3.98-1.88,1.31-1.13,2.69-3.47,4.15-7l8.16-19.45c2.04-4.84,3.67-9.04,4.91-12.6l5.34-2.17c.49,0,.79.19.9.56.33.9,2.21,5.75,5.64,14.56l7.67,19.57c1.37,3.57,2.51,5.85,3.42,6.83.57.64,1.17,1.05,1.79,1.23.46.14,1.33.25,2.59.35.6,0,.89.25.89.76s-.3.79-.89.79c-4.03-.08-7.23-.12-9.62-.12s-5.54.04-9.59.12c-.35,0-.53-.26-.53-.79s.18-.76.53-.76c2.83-.14,4.4-.66,4.71-1.58.13-.35.2-.73.2-1.14,0-1.02-.48-2.73-1.43-5.16l-2.85-7.06ZM965.44,2022.99l-3.05,7.73-4.35,10.63c1.48.08,3.99.12,7.53.12,3.23,0,5.5-.04,6.8-.12l-4.08-10.52c-.73-1.84-1.68-4.45-2.85-7.85Z"/>
      <path class="cls-6" d="M1031.98,2038.66v14.59c0,2.09.19,3.45.56,4.07.38.57,1.08.95,2.12,1.14.46.08,1.56.2,3.29.35.4.04.6.27.6.7,0,.49-.22.73-.66.73-.71-.02-1.81-.04-3.32-.06-3.05-.08-5.28-.12-6.67-.12-3.3,0-6.49.06-9.59.18-.31,0-.46-.22-.46-.67s.16-.72.46-.76c1.81-.16,2.92-.29,3.32-.41.69-.2,1.18-.56,1.49-1.08.46-.66.74-1.77.83-3.31.04-.7.07-2.3.07-4.8v-21.77c0-3.07-.06-5-.17-5.8-.09-.76-.33-1.46-.73-2.08-.29-.53-.9-.89-1.83-1.08-.46-.1-1.54-.21-3.22-.35-.35-.04-.53-.29-.53-.76,0-.57.18-.85.53-.85.49,0,2.26.05,5.31.15,1.9.06,3.41.09,4.51.09,1.24,0,2.95-.04,5.14-.12,2.3-.06,3.75-.1,4.35-.12.55,0,.83.28.83.85,0,.45-.22.7-.66.76-1.79.18-2.89.31-3.29.41-.73.2-1.27.54-1.63,1.03-.44.84-.66,3.47-.66,7.88v8.53c2.9.12,6.95.18,12.15.18s8.96-.06,11.81-.18v-8.53c0-3.16-.03-5.11-.1-5.83-.07-.78-.25-1.46-.56-2.05-.33-.55-1-.92-1.99-1.11-.35-.06-1.44-.17-3.25-.32-.35-.04-.53-.29-.53-.76,0-.57.2-.85.6-.85.49,0,2.28.05,5.38.15,1.92.06,3.47.09,4.65.09s2.81-.04,4.98-.12c2.23-.06,3.69-.1,4.38-.12.55,0,.83.26.83.79s-.25.78-.76.82c-1.86.18-3.03.34-3.5.48s-.87.46-1.18.95c-.64.94-.96,3.56-.96,7.88v21.77c0,3.18.05,5.2.17,6.04.09.78.33,1.47.73,2.08.38.57,1.05.95,2.02,1.14.46.1,1.56.21,3.29.35.31.04.46.29.46.76s-.2.67-.6.67c-.8-.02-1.92-.04-3.38-.06-3.05-.08-5.22-.12-6.5-.12-.16,0-3.37.06-9.66.18-.4,0-.6-.22-.6-.67s.2-.72.6-.76c1.75-.16,2.83-.29,3.25-.41.64-.2,1.12-.56,1.43-1.08.55-.94.83-3.64.83-8.12v-10.55c-2.85-.16-6.79-.23-11.81-.23s-9.25.08-12.15.23Z"/>
      <path class="cls-6" d="M1076.95,2058.76c1.79-.18,2.88-.31,3.25-.41.75-.2,1.29-.56,1.63-1.08.4-.66.63-1.76.7-3.28.04-.66.07-2.26.07-4.78v-21.77c0-3.14-.03-5.07-.1-5.77-.07-.76-.27-1.45-.6-2.05-.33-.57-1.01-.95-2.02-1.14-.46-.08-1.56-.2-3.29-.35-.31,0-.46-.27-.46-.82s.18-.79.53-.79c.6.02,2.39.07,5.38.15,1.9.06,3.4.09,4.48.09,1.28,0,3.04-.04,5.28-.12,2.3-.06,3.79-.1,4.48-.12.4,0,.6.28.6.85,0,.45-.2.7-.6.76-1.75.16-2.84.3-3.29.44-.75.2-1.29.55-1.63,1.05-.49.86-.73,3.47-.73,7.82v21.77c0,3.44.02,5.45.07,6.04.07.8.28,1.47.63,2.02.31.55.98.93,2.02,1.14.44.08,1.54.2,3.29.35.4.04.6.29.6.76s-.23.73-.7.73c-.75-.02-1.87-.04-3.35-.06-3.05-.08-5.27-.12-6.64-.12-.07,0-3.24.06-9.52.18-.35,0-.53-.24-.53-.73s.16-.72.46-.76Z"/>
      <path class="cls-6" d="M1118.26,2040.27l-2.79-4.01-6.47-9.73c-2.28-3.48-3.97-5.76-5.08-6.86-.64-.57-1.29-.96-1.96-1.17-.53-.16-1.36-.28-2.49-.38-.4-.04-.6-.29-.6-.76,0-.57.2-.85.6-.85,4.2.16,7.37.23,9.49.23,2.37,0,5.56-.08,9.59-.23.35,0,.53.26.53.79,0,.49-.16.76-.46.82-1.62.16-2.64.31-3.09.47-.64.2-1.03.54-1.16,1.03-.04.2-.07.39-.07.59,0,.51.24,1.16.73,1.96.13.2.39.59.76,1.17.29.41.52.75.7,1.03l6.11,9.61c.93,1.37,1.61,2.4,2.06,3.11.84-1.07,1.49-2.01,1.96-2.81l5.64-9.4c1.04-1.8,1.56-3.06,1.56-3.78,0-.35-.08-.71-.23-1.08-.38-.98-1.84-1.6-4.38-1.88-.4-.04-.6-.29-.6-.76,0-.39.04-.63.13-.73.09-.08.29-.12.6-.12,3.41.16,6.17.23,8.3.23,1.53,0,4.03-.08,7.5-.23.4,0,.6.26.6.79s-.22.78-.66.82c-1.79.2-3.38.82-4.78,1.88-1.66,1.23-3.45,3.29-5.38,6.18l-6.3,9.4c-.38.59-.8,1.2-1.26,1.85-.58.82-.91,1.29-1,1.41l-.07,4.07v6.3c0,3.46.02,5.47.07,6.04.07.8.24,1.45.53,1.93.35.62,1.05,1.04,2.09,1.23.4.08,1.53.2,3.39.35.35.04.53.29.53.76s-.18.73-.53.73c-.13,0-1.97-.04-5.51-.12-1.86-.04-3.39-.06-4.58-.06-1.26,0-2.94.02-5.04.06-2.59.08-4.05.12-4.38.12-.46,0-.7-.24-.7-.73s.2-.72.6-.76c1.77-.16,2.89-.3,3.35-.44.75-.21,1.27-.6,1.56-1.14.44-.88.66-3.54.66-7.97v-6.36l-.07-2.58Z"/>
      <path class="cls-6" d="M1169.14,2015.55c8.25,0,14.88,2.39,19.88,7.18,4.34,4.16,6.5,9.35,6.5,15.56,0,7.13-2.8,12.89-8.4,17.29-4.85,3.81-10.84,5.71-17.99,5.71-8.19,0-14.79-2.45-19.81-7.35-4.31-4.22-6.47-9.39-6.47-15.53,0-7.09,2.79-12.81,8.36-17.17,4.84-3.79,10.82-5.68,17.92-5.68ZM1169.14,2017.6c-5.35,0-9.59,2.15-12.71,6.45-2.74,3.73-4.12,8.48-4.12,14.24,0,6.76,1.75,12.06,5.24,15.91,3.01,3.32,6.87,4.98,11.58,4.98,5.44,0,9.72-2.14,12.84-6.42,2.72-3.73,4.08-8.49,4.08-14.27,0-6.76-1.77-12.07-5.31-15.94-3.05-3.3-6.92-4.95-11.62-4.95Z"/>
      <path class="cls-6" d="M1232.59,2016.57c0,.92.23,4.31.7,10.17,0,.33-.23.54-.7.62-.16.02-.29.03-.4.03-.29,0-.49-.14-.6-.41-3.03-6.33-7.13-9.49-12.31-9.49-2.52,0-4.56.77-6.11,2.31-1.37,1.39-2.06,3.13-2.06,5.24,0,2.95,2.53,5.51,7.6,7.68l3.65,1.55c5.33,2.3,8.84,4.4,10.52,6.3,1.68,1.88,2.52,4.43,2.52,7.68,0,4.36-1.81,7.68-5.44,9.96-3.16,2.01-7.4,3.02-12.71,3.02-4.25,0-8.59-.7-13.04-2.11-1.04-3.44-1.83-6.79-2.36-10.05-.02-.12-.03-.21-.03-.26,0-.39.25-.62.76-.7.18-.02.32-.03.43-.03.38,0,.62.14.73.41,1.73,3.42,3.92,6.11,6.57,8.09,2.48,1.84,5.04,2.75,7.7,2.75,3.1,0,5.58-.92,7.43-2.75,1.61-1.58,2.42-3.54,2.42-5.89s-.91-4.28-2.72-5.86c-1.42-1.25-3.82-2.65-7.2-4.19l-3.38-1.55c-4.36-1.93-7.29-3.87-8.79-5.8-1.37-1.78-2.06-4.08-2.06-6.91,0-3.34,1.58-6.04,4.75-8.09,2.81-1.82,6.3-2.72,10.49-2.72,2.04,0,4.33.27,6.87.82,1.15.25,2.4.38,3.75.38.97,0,1.98-.06,3.02-.18Z"/>
      <path class="cls-6" d="M1256.18,2038.66v14.59c0,2.09.19,3.45.56,4.07.38.57,1.08.95,2.12,1.14.46.08,1.56.2,3.29.35.4.04.6.27.6.7,0,.49-.22.73-.66.73-.71-.02-1.81-.04-3.32-.06-3.05-.08-5.28-.12-6.67-.12-3.3,0-6.49.06-9.59.18-.31,0-.46-.22-.46-.67s.16-.72.46-.76c1.81-.16,2.92-.29,3.32-.41.69-.2,1.18-.56,1.49-1.08.46-.66.74-1.77.83-3.31.04-.7.07-2.3.07-4.8v-21.77c0-3.07-.06-5-.17-5.8-.09-.76-.33-1.46-.73-2.08-.29-.53-.9-.89-1.83-1.08-.46-.1-1.54-.21-3.22-.35-.35-.04-.53-.29-.53-.76,0-.57.18-.85.53-.85.49,0,2.26.05,5.31.15,1.9.06,3.41.09,4.51.09,1.24,0,2.95-.04,5.14-.12,2.3-.06,3.75-.1,4.35-.12.55,0,.83.28.83.85,0,.45-.22.7-.66.76-1.79.18-2.89.31-3.29.41-.73.2-1.27.54-1.63,1.03-.44.84-.66,3.47-.66,7.88v8.53c2.9.12,6.95.18,12.15.18s8.96-.06,11.81-.18v-8.53c0-3.16-.03-5.11-.1-5.83-.07-.78-.25-1.46-.56-2.05-.33-.55-1-.92-1.99-1.11-.35-.06-1.44-.17-3.25-.32-.35-.04-.53-.29-.53-.76,0-.57.2-.85.6-.85.49,0,2.28.05,5.38.15,1.92.06,3.47.09,4.65.09s2.81-.04,4.98-.12c2.23-.06,3.69-.1,4.38-.12.55,0,.83.26.83.79s-.25.78-.76.82c-1.86.18-3.03.34-3.5.48s-.87.46-1.18.95c-.64.94-.96,3.56-.96,7.88v21.77c0,3.18.05,5.2.17,6.04.09.78.33,1.47.73,2.08.38.57,1.05.95,2.02,1.14.46.1,1.56.21,3.29.35.31.04.46.29.46.76s-.2.67-.6.67c-.8-.02-1.92-.04-3.38-.06-3.05-.08-5.22-.12-6.5-.12-.16,0-3.37.06-9.66.18-.4,0-.6-.22-.6-.67s.2-.72.6-.76c1.75-.16,2.83-.29,3.25-.41.64-.2,1.12-.56,1.43-1.08.55-.94.83-3.64.83-8.12v-10.55c-2.85-.16-6.79-.23-11.81-.23s-9.25.08-12.15.23Z"/>
      <path class="cls-6" d="M1301.15,2058.76c1.79-.18,2.88-.31,3.25-.41.75-.2,1.29-.56,1.63-1.08.4-.66.63-1.76.7-3.28.04-.66.07-2.26.07-4.78v-21.77c0-3.14-.03-5.07-.1-5.77-.07-.76-.27-1.45-.6-2.05-.33-.57-1.01-.95-2.02-1.14-.46-.08-1.56-.2-3.29-.35-.31,0-.46-.27-.46-.82s.18-.79.53-.79c.6.02,2.39.07,5.38.15,1.9.06,3.4.09,4.48.09,1.28,0,3.04-.04,5.28-.12,2.3-.06,3.79-.1,4.48-.12.4,0,.6.28.6.85,0,.45-.2.7-.6.76-1.75.16-2.84.3-3.29.44-.75.2-1.29.55-1.63,1.05-.49.86-.73,3.47-.73,7.82v21.77c0,3.44.02,5.45.07,6.04.07.8.28,1.47.63,2.02.31.55.98.93,2.02,1.14.44.08,1.54.2,3.29.35.4.04.6.29.6.76s-.23.73-.7.73c-.75-.02-1.87-.04-3.35-.06-3.05-.08-5.27-.12-6.64-.12-.07,0-3.24.06-9.52.18-.35,0-.53-.24-.53-.73s.16-.72.46-.76Z"/>
    </g>
    <g>
      <path class="cls-6" d="M645.3,561.42c4.55,1.25,4.67,2.81.36,4.69v14.69h24.08l7.19-6.25,8.27,5.94c.72,1.25.36,2.08-1.08,2.5h-38.45v19.69h15.81l3.95-4.38,7.19,6.25c2.16,2.5,1.44,3.86-2.16,4.06v23.75l-1.8.94c-3.59,1.25-5.75,1.25-6.47,0v-4.38h-39.89v3.75l-1.8.94c-3.59,1.25-5.75,1.25-6.47,0v-34.69l9.7,3.75h13.66v-19.69h-38.09v-2.19h38.09v-20l7.91.62ZM622.3,627.05h39.89v-22.5h-39.89v22.5Z"/>
      <path class="cls-6" d="M753.48,563.61c2.63,1.46,2.16,2.5-1.44,3.12l-8.98,6.25h13.66l7.19-6.25,8.27,5.94c.95.83.84,1.56-.36,2.19h-34.14v6.88h13.66l5.75-5,6.83,4.69c.95.83.72,1.56-.72,2.19h-25.52v7.19h22.28l7.19-6.25,8.27,5.94c.95.83.84,1.56-.36,2.19h-48.16c-.96,2.29-2.28,4.79-3.95,7.5h28.75l4.67-5,7.19,6.25c2.16,2.5,1.44,3.86-2.16,4.06v26.56l-1.8.94c-3.59,1.25-5.75,1.25-6.47,0v-3.12h-31.27v3.44l-1.8.94c-3.59,1.25-5.75,1.25-6.47,0v-23.12c-6.47,6.25-13.42,10.94-20.84,14.06-3.36,1.25-3.59.83-.72-1.25,12.22-9.17,20.48-19.58,24.8-31.25h-25.16v-1.88h37.73v-7.19h-26.59v-1.88h26.59v-6.88h-33.06v-1.88h22.28c-.96-.42-1.8-1.88-2.52-4.38-1.44-3.12-3.36-5.31-5.75-6.56-1.68-.83-1.68-1.14,0-.94,5.75.42,10.06,1.88,12.94,4.38,2.39,2.71,2.75,5.21,1.08,7.5h14.73c2.63-4.38,4.55-8.75,5.75-13.12l8.62,3.75ZM721.85,609.55h31.27v-7.5h-31.27v7.5ZM721.85,618.92h31.27v-7.5h-31.27v7.5ZM721.85,627.99h31.27v-7.19h-31.27v7.19Z"/>
      <path class="cls-6" d="M856.98,580.17c4.79,4.17,7.19,9.58,7.19,16.25,0,17.71-13.18,28.33-39.53,31.88-.96-.21-.96-.62,0-1.25,19.41-5.62,29.11-15.31,29.11-29.06,0-7.08-2.28-12.6-6.83-16.56-5.27-4.58-12.94-6.67-23-6.25,1.92.83,3.71,1.98,5.39,3.44,1.67,1.25,1.31,2.61-1.08,4.06-7.19,18.54-14.14,31.25-20.84,38.12-1.68,1.46-3.48,2.19-5.39,2.19-3.36,0-6.47-1.25-9.34-3.75-4.08-3.54-6.11-8.33-6.11-14.38,0-7.92,3.83-15.21,11.5-21.88,8.86-7.71,19.77-11.56,32.7-11.56,10.78,0,19.52,2.92,26.23,8.75ZM793.73,604.55c0,4.38,1.31,7.71,3.95,10,.95.83,2.16,1.25,3.59,1.25,1.2,0,2.52-.83,3.95-2.5,5.51-7.29,10.66-17.6,15.45-30.94.72-1.88.84-3.33.36-4.38-.48-.83-1.08-1.56-1.8-2.19-5.75,1.67-10.55,4.17-14.38,7.5-7.43,6.46-11.14,13.54-11.14,21.25Z"/>
      <path class="cls-6" d="M908.73,569.55c1.92,2.08,1.08,3.44-2.52,4.06v40.62l-1.8.94c-2.88,1.25-4.67,1.15-5.39-.31v-2.81h-12.58v4.06l6.11,3.44c1.44,1.04.84,1.88-1.8,2.5-4.8,5.83-9.83,9.89-15.09,12.19-1.92.62-2.16.31-.72-.94,5.03-5.62,8.5-11.14,10.42-16.56l-1.44.62c-2.88.83-4.44.62-4.67-.62v-52.19l7.91,3.44h10.42l4.31-4.38,6.83,5.94ZM886.44,582.05h12.58v-12.19h-12.58v12.19ZM886.44,596.11h12.58v-12.19h-12.58v12.19ZM886.44,610.17h12.58v-12.19h-12.58v12.19ZM906.21,625.17c0,3.12-1.44,4.69-4.31,4.69-1.92,0-3-1.56-3.23-4.69-.72-3.54-2.4-6.35-5.03-8.44-1.2-.62-.96-.94.72-.94,7.91,1.67,11.86,4.79,11.86,9.38ZM960.48,569.55c.95.83.84,1.56-.36,2.19h-38.09v18.12h21.56l3.59-4.38,7.55,6.56c2.16,2.29,1.08,3.54-3.23,3.75-1.92,6.67-5.27,13.54-10.06,20.62,4.79,4.17,11.5,7.61,20.12,10.31-3.59,1.67-6.47,4.17-8.62,7.5-4.55-2.29-9.94-6.67-16.17-13.12-9.58,7.92-18.33,12.71-26.23,14.38-1.68.21-1.68-.11,0-.94,9.82-4.58,17.37-10.73,22.64-18.44-3.59-5.62-6.11-13.75-7.55-24.38h-3.59c.48,19.79-5.51,33.96-17.97,42.5-1.44.62-1.56.21-.36-1.25,7.42-8.96,11.14-22.6,11.14-40.94v-25.94l8.27,3.75h21.92l7.19-6.25,8.27,5.94ZM927.77,591.74c1.92,8.12,4.79,14.79,8.62,20,3.35-5.62,5.87-12.29,7.55-20h-16.17Z"/>
      <path class="cls-6" d="M978.09,592.67c.48,1.04.84,1.98,1.08,2.81h60.02l3.59-3.44,7.55,6.56c2.63,2.5,1.08,3.65-4.67,3.44l-10.42,6.88c-1.44.83-1.8.52-1.08-.94l5.03-10.62h-59.66c.72,4.38-.12,7.81-2.52,10.31-1.2,1.25-2.88,1.88-5.03,1.88s-3.48-1.14-3.95-3.44c0-1.46.84-2.81,2.52-4.06,4.07-2.29,6.11-5.42,6.11-9.38.24-1.25.72-1.25,1.44,0ZM1003.24,601.42c4.55.62,4.67,2.19.36,4.69v3.44c0,9.79-3.72,16.67-11.14,20.62-5.51,2.92-12.82,4.69-21.92,5.31-1.92,0-2.04-.42-.36-1.25,6.47-1.67,11.98-3.86,16.53-6.56,5.75-3.33,8.62-9.79,8.62-19.38v-7.5l7.91.62ZM1012.23,561.74c4.55,1.25,4.67,2.81.36,4.69v7.19h20.12l7.19-6.25,8.27,5.94c.95.83.84,1.56-.36,2.19h-35.22v10h16.17l5.75-5,6.83,4.69c.95.83.72,1.56-.72,2.19h-65.77v-1.88h29.47v-10h-34.5v-1.88h34.5v-12.5l7.91.62ZM1021.21,601.42c4.55,1.25,4.67,2.81.36,4.69v18.75c0,1.04.72,1.67,2.16,1.88,4.79.42,9.58.42,14.38,0,2.16-.21,3.71-.83,4.67-1.88,1.44-2.5,2.88-5.73,4.31-9.69.72-1.25,1.08-1.25,1.08,0l-.72,10.62c0,.42.24.73.72.94,3.11,1.88,3.35,3.54.72,5-.96.42-2.64.73-5.03.94-7.43.42-14.98.42-22.64,0-5.27-.42-7.91-1.98-7.91-4.69v-27.19l7.91.62Z"/>
      <path class="cls-6" d="M1100.27,566.42c1.67,1.04,1.92,2.08.72,3.12-.96,1.25-1.56,3.02-1.8,5.31v12.81c0,3.54.48,5.73,1.44,6.56,5.75-2.08,11.02-3.96,15.81-5.62,1.92-1.25,1.2-2.81-2.16-4.69-.96-.42-.84-.83.36-1.25,2.16-1.04,4.43-.94,6.83.31,2.63,1.67,5.27,4.06,7.91,7.19.95,1.67.36,2.71-1.8,3.12-23.24,4.38-37.98,9.27-44.2,14.69-2.64,2.29-3.95,4.69-3.95,7.19,0,2.08.72,3.75,2.16,5,2.88,2.5,9.22,3.75,19.05,3.75,4.79,0,10.9-.42,18.33-1.25,2.16-.42,3.59-.83,4.31-1.25,1.2-.62,2.39-.62,3.59,0,1.67,1.46,2.88,2.92,3.59,4.38.95,2.29.24,3.64-2.16,4.06-3.59.62-11.86.94-24.8.94s-21.56-1.88-25.88-5.62c-2.64-2.29-3.95-5.21-3.95-8.75,0-4.17,1.92-7.92,5.75-11.25,3.83-3.33,8.86-6.14,15.09-8.44-1.44-1.88-2.28-4.17-2.52-6.88-.48-2.5-.6-8.96-.36-19.38,0-2.71-2.04-4.38-6.11-5-1.2,0-1.32-.42-.36-1.25.95-.62,2.27-1.14,3.95-1.56,3.11-.21,6.83,1.04,11.14,3.75Z"/>
      <path class="cls-6" d="M1185.45,623.61c2.63,2.08,1.56,3.12-3.23,3.12-9.11,5-19.29,8.23-30.55,9.69-1.68,0-1.8-.31-.36-.94,11.98-4.38,21.44-9.58,28.39-15.62l5.75,3.75ZM1231.8,567.99c1.92,2.08,1.08,3.44-2.52,4.06v13.12l-1.8.94c-2.88,1.25-4.67,1.15-5.39-.31v-3.75h-57.5v2.81l-1.8.94c-2.88,1.25-4.67,1.15-5.39-.31v-22.19l7.91,3.12h55.34l4.31-4.38,6.83,5.94ZM1224.98,591.11c2.16,2.5,1.44,3.86-2.16,4.06v25l-1.8.94c-3.59,1.25-5.75,1.25-6.47,0v-2.81h-42.41v3.44l-1.8.94c-3.59,1.25-5.75,1.25-6.47,0v-35.94l8.98,3.12h40.25l4.67-5,7.19,6.25ZM1164.6,580.17h14.73v-11.88h-14.73v11.88ZM1172.15,598.61h42.41v-6.88h-42.41v6.88ZM1172.15,607.36h42.41v-6.88h-42.41v6.88ZM1172.15,616.42h42.41v-7.19h-42.41v7.19ZM1186.52,580.17h13.3v-11.88h-13.3v11.88ZM1214.55,622.67c5.51,1.25,9.82,2.61,12.94,4.06,3.11,1.46,4.67,3.33,4.67,5.62,0,1.88-.96,2.92-2.88,3.12-1.68.21-3.95-.62-6.83-2.5-6.95-4.38-15.09-8.02-24.44-10.94-1.44-.62-1.32-1.04.36-1.25,5.99.21,11.38.83,16.17,1.88ZM1207.01,580.17h15.09v-11.88h-15.09v11.88Z"/>
      <path class="cls-6" d="M1294.7,567.36c.95.83.72,1.56-.72,2.19h-14.38v8.12h29.83l4.31-4.06,7.91,6.88c1.92,2.5.84,3.75-3.23,3.75-3.12,12.08-6.95,21.36-11.5,27.81,6.47,5.83,14.02,10.31,22.64,13.44-2.64.83-5.51,3.23-8.62,7.19-6.95-3.96-13.06-9.06-18.33-15.31-5.27,5.83-12.1,10.62-20.48,14.38-2.4.83-2.64.42-.72-1.25,6.7-4.38,12.34-10.31,16.89-17.81-5.51-9.17-8.87-20.21-10.06-33.12h-8.62v53.44l-1.8.94c-3.59,1.25-5.75,1.25-6.47,0v-20.62l-19.77,5.62c-1.2,3.96-2.64,4.69-4.31,2.19l-5.03-7.81,8.27-.62v-43.12h-6.47v-1.88h38.09l5.75-5,6.83,4.69ZM1258.76,582.05h12.58v-12.5h-12.58v12.5ZM1258.76,595.8h12.58v-11.88h-12.58v11.88ZM1258.76,612.05l12.58-1.25v-13.12h-12.58v14.38ZM1291.1,579.55c1.67,11.04,5.27,20.21,10.78,27.5,4.07-8.12,6.83-17.29,8.27-27.5h-19.05Z"/>
    </g>
    <line class="cls-5" x1="1307.49" y1="1498.62" x2="2421.09" y2="1495.42"/>
    <path class="cls-2" d="M1321.34,1494.68c15.03-19.5,30.05-39.01,45.06-58.53,4.54-5.9,14.8-19.26,19.34-25.17,6.34-8.61,12.85-17.27,19.54-25.97,18.14-23.6,36.36-45.91,54.47-66.97-9.24,14.85-17.26,26.84-23.16,35.41-3.49,5.07-7.57,10.84-15.75,22.37-7.05,9.96-12.51,17.65-19.73,27.57-6.19,8.51-11.62,15.8-15.95,21.57-8.84,11.39-17.68,22.77-26.52,34.16-10.63,13.12-21.27,26.23-31.9,39.35-1.8-1.27-3.6-2.53-5.4-3.8Z"/>
    <path class="cls-2" d="M764.16,1458.54c-6.43,0-6.45,10,0,10s6.45-10,0-10Z"/>
  </g>
</svg>